<?xml version="1.0" encoding="utf-8"?>
<!-- Generator: Adobe Illustrator 27.5.0, SVG Export Plug-In . SVG Version: 6.00 Build 0)  -->
<svg version="1.1" xmlns="http://www.w3.org/2000/svg" xmlns:xlink="http://www.w3.org/1999/xlink" x="0px" y="0px"
	 viewBox="0 0 1470 500" style="enable-background:new 0 0 1470 500;" xml:space="preserve">
<g id="BANNER_2">
	<g id="BACKGROUND">
	</g>
	<g id="OBJECTS">
	</g>
</g>
<g id="BANNER_1">
	<g id="BACKGROUND_1_">
		<rect style="fill:#3A3845;" width="1470" height="500"/>
	</g>
	<g id="OBJECTS_1_">
		<g>
			<rect x="493.712" y="130.393" style="fill:#569957;" width="597.096" height="127.49"/>
			<rect y="130.546" style="fill:#D79CC1;" width="497.381" height="126.42"/>
			<rect y="256.966" style="fill:#F3DB39;" width="1004.133" height="106.395"/>
		</g>
		<text transform="matrix(1 0 0 1 107.6521 246.0814)" style="fill:#3A3845; font-family:'Palanquin-Bold'; font-size:147.6926px;">Music Festival</text>
		<text transform="matrix(1 0 0 1 128.2892 439.6793)" style="fill:#FFFFFF; font-family:'Palanquin-Bold'; font-size:92.068px;">2022</text>
		<rect x="125.779" y="273.519" style="fill:none;" width="770.583" height="70.663"/>
		<text transform="matrix(1 0 0 1 125.7793 296.1104)"><tspan x="0" y="0" style="fill:#3A3845; font-family:'Palanquin-Bold'; font-size:32px;">Lorem ipsum dolor sit amet, consectetuer adipis cing </tspan><tspan x="0" y="38.4" style="fill:#3A3845; font-family:'Palanquin-Bold'; font-size:32px;">elit, sed diam nonum my nibh euismod.</tspan><tspan x="560.986" y="38.4" style="fill:#FFFFFF; font-family:'Palanquin-Bold'; font-size:32px;"> </tspan></text>
		<g>
			<g>
				<rect x="1314.841" y="346.666" style="fill:#3A3845;" width="154.217" height="154.142"/>
			</g>
			<g>
				<polygon style="fill:#CE626E;" points="1469.374,441.02 1469.374,419.058 1398.045,347.403 1376.183,347.403 				"/>
				<polygon style="fill:#CE626E;" points="1469.374,394.716 1469.374,372.755 1444.138,347.403 1422.276,347.403 				"/>
				<polygon style="fill:#CE626E;" points="1469.374,481.615 1469.374,459.654 1357.634,347.403 1335.772,347.403 				"/>
				<polygon style="fill:#CE626E;" points="1469.374,501.126 1469.374,500.249 1317.223,347.403 1315.101,347.403 1315.101,367.233 
					1448.385,501.126 				"/>
				<polygon style="fill:#CE626E;" points="1429.836,501.126 1315.101,385.867 1315.101,407.829 1407.974,501.126 				"/>
				<polygon style="fill:#CE626E;" points="1389.425,501.126 1315.101,426.462 1315.101,448.424 1367.563,501.126 				"/>
				<polygon style="fill:#CE626E;" points="1347.413,501.126 1315.101,468.665 1315.101,490.627 1325.552,501.126 				"/>
			</g>
			<rect x="1315.101" y="193.068" style="fill:#F3DB39;" width="154.668" height="154.668"/>
			<rect x="1344.344" y="222.311" style="fill:#D79CC1;" width="96.181" height="96.181"/>
			<rect x="1374.265" y="252.232" style="fill:#CE626E;" width="36.339" height="36.339"/>
			<g>
				<rect x="1160.821" y="347.465" style="fill:#569957;" width="153.656" height="153.73"/>
			</g>
			<g>
				<path style="fill:#F4EFE4;" d="M1196.34,435.026h7.464v26.282h-23.015v-75.109h15.551V435.026z M1227.582,386.199h-7.466v48.827
					h-7.767v26.282h23.014v-26.282h-7.782V386.199z M1260.488,386.199h-9.119v48.827h-6.731v26.282h23.017v-26.282h-7.167V386.199z
					 M1284.262,386.199v48.827h-7.924v26.282h23.022v-75.109H1284.262z"/>
				<rect x="1200.862" y="375.169" style="fill:#262425;" width="15.007" height="53.597"/>
				<rect x="1232.062" y="375.169" style="fill:#262425;" width="15.019" height="53.597"/>
				<rect x="1264.861" y="375.169" style="fill:#262425;" width="15.007" height="53.597"/>
			</g>
			<polygon style="fill:#827096;" points="1387.117,82.441 1407.791,55.863 1406.544,89.512 1439.465,82.441 1416.881,107.416 
				1446.645,123.161 1413.291,127.776 1425.971,158.969 1397.454,141.065 1387.117,173.111 1376.78,141.065 1348.263,158.969 
				1360.943,127.776 1327.589,123.161 1357.353,107.416 1334.769,82.441 1367.69,89.512 1366.443,55.863 			"/>
			<g>
				<polygon style="fill:#FDFCFD;" points="1165.417,238.042 1194.669,267.865 1231.535,267.865 1231.535,230.999 1202.282,201.176 
									"/>
				<rect x="1166.711" y="201.176" style="fill:#F3DB39;" width="36.865" height="36.865"/>
				<polygon style="fill:#FDFCFD;" points="1230.743,238.042 1259.995,267.865 1296.86,267.865 1296.86,230.999 1267.608,201.176 
									"/>
				<rect x="1232.037" y="201.176" style="fill:#F3DB39;" width="36.865" height="36.865"/>
			</g>
			<g>
				<polygon style="fill:#FDFCFD;" points="1166.711,304.014 1195.963,333.837 1232.828,333.837 1232.828,296.972 1203.576,267.149 
									"/>
				<rect x="1168.005" y="267.149" style="fill:#F3DB39;" width="36.865" height="36.865"/>
				<polygon style="fill:#FDFCFD;" points="1232.037,304.014 1261.289,333.837 1298.154,333.837 1298.154,296.972 1268.902,267.149 
									"/>
				<rect x="1232.037" y="267.149" style="fill:#F3DB39;" width="36.865" height="36.865"/>
			</g>
		</g>
		<g>
			<path style="fill:#F4EFE4;" d="M128.264,87.38h3.183v11.209h-9.816V66.556h6.632V87.38z M141.588,66.556h-3.184V87.38h-3.312
				v11.209h9.815V87.38h-3.319V66.556z M155.622,66.556h-3.889V87.38h-2.871v11.209h9.817V87.38h-3.057V66.556z M165.762,66.556
				V87.38h-3.38v11.209h9.819V66.556H165.762z"/>
			<rect x="130.192" y="61.852" style="fill:#F3DB39;" width="6.4" height="22.859"/>
			<rect x="143.499" y="61.852" style="fill:#F3DB39;" width="6.406" height="22.859"/>
			<rect x="157.488" y="61.852" style="fill:#F3DB39;" width="6.4" height="22.859"/>
		</g>
		<g>
			<text transform="matrix(1 0 0 1 177.5839 99.414)" style="fill:#F4EFE4; font-family:'Palanquin-Bold'; font-size:59.0196px;">art</text>
		</g>
		<g>
			<g>
				<g>
					<path style="fill:#F4EFE4;" d="M870.325,438.456c9.505,0,14.704-7.875,14.704-14.704c0-0.224-0.004-0.447-0.015-0.668
						c1.01-0.729,1.886-1.639,2.578-2.676c-0.926,0.411-1.922,0.688-2.968,0.813c1.067-0.64,1.886-1.652,2.272-2.859
						c-0.998,0.592-2.104,1.023-3.281,1.254c-0.943-1.004-2.286-1.633-3.773-1.633c-2.854,0-5.168,2.314-5.168,5.167
						c0,0.406,0.045,0.8,0.134,1.178c-4.295-0.216-8.103-2.272-10.652-5.399c-0.444,0.763-0.7,1.651-0.7,2.598
						c0,1.793,0.912,3.375,2.3,4.301c-0.848-0.026-1.644-0.258-2.341-0.646c-0.002,0.022-0.002,0.044-0.002,0.066
						c0,2.503,1.782,4.592,4.146,5.067c-0.434,0.118-0.891,0.181-1.362,0.181c-0.333,0-0.657-0.033-0.972-0.093
						c0.658,2.053,2.566,3.547,4.828,3.59c-1.769,1.386-3.996,2.212-6.419,2.212c-0.417,0-0.828-0.024-1.232-0.071
						C864.69,437.6,867.405,438.456,870.325,438.456"/>
				</g>
				<g>
					<g>
						<path style="fill:#F4EFE4;" d="M815.182,414.333c3.977,0,4.447,0.016,6.018,0.087c1.452,0.066,2.241,0.309,2.765,0.512
							c0.695,0.27,1.191,0.593,1.712,1.114c0.521,0.521,0.844,1.017,1.115,1.712c0.204,0.525,0.446,1.313,0.512,2.765
							c0.072,1.571,0.087,2.042,0.087,6.019c0,3.976-0.015,4.447-0.087,6.018c-0.066,1.452-0.308,2.241-0.512,2.766
							c-0.271,0.695-0.593,1.191-1.115,1.712c-0.521,0.521-1.017,0.844-1.712,1.114c-0.525,0.204-1.314,0.447-2.765,0.513
							c-1.57,0.071-2.042,0.087-6.018,0.087c-3.977,0-4.448-0.016-6.018-0.087c-1.452-0.066-2.241-0.309-2.766-0.513
							c-0.695-0.27-1.191-0.593-1.712-1.114c-0.521-0.521-0.844-1.017-1.115-1.712c-0.204-0.525-0.446-1.313-0.513-2.766
							c-0.072-1.57-0.087-2.041-0.087-6.018c0-3.977,0.015-4.448,0.087-6.019c0.066-1.452,0.308-2.241,0.513-2.765
							c0.27-0.695,0.593-1.192,1.115-1.712c0.521-0.521,1.017-0.844,1.712-1.114c0.525-0.204,1.314-0.447,2.766-0.512
							C810.734,414.348,811.204,414.333,815.182,414.333 M815.182,411.649c-4.045,0-4.552,0.017-6.141,0.09
							c-1.585,0.073-2.668,0.324-3.615,0.693c-0.98,0.38-1.811,0.889-2.638,1.717c-0.828,0.828-1.337,1.659-1.718,2.638
							c-0.369,0.947-0.62,2.03-0.692,3.615c-0.073,1.589-0.09,2.096-0.09,6.141c0,4.044,0.018,4.552,0.09,6.14
							c0.072,1.585,0.324,2.668,0.692,3.615c0.38,0.98,0.89,1.81,1.718,2.638c0.827,0.828,1.658,1.337,2.638,1.718
							c0.947,0.368,2.03,0.62,3.615,0.692c1.589,0.072,2.096,0.089,6.141,0.089c4.045,0,4.552-0.017,6.141-0.089
							c1.585-0.072,2.667-0.324,3.615-0.692c0.98-0.381,1.81-0.89,2.638-1.718c0.828-0.828,1.338-1.659,1.718-2.638
							c0.368-0.947,0.62-2.03,0.692-3.615c0.073-1.588,0.091-2.096,0.091-6.14c0-4.045-0.018-4.552-0.091-6.141
							c-0.072-1.585-0.324-2.667-0.692-3.615c-0.38-0.979-0.89-1.81-1.718-2.638c-0.828-0.828-1.658-1.337-2.638-1.717
							c-0.948-0.369-2.03-0.62-3.615-0.693C819.733,411.667,819.227,411.649,815.182,411.649"/>
						<path style="fill:#F4EFE4;" d="M815.182,418.895c-4.224,0-7.648,3.424-7.648,7.648s3.424,7.648,7.648,7.648
							c4.224,0,7.648-3.424,7.648-7.648S819.405,418.895,815.182,418.895 M815.182,431.507c-2.742,0-4.965-2.223-4.965-4.964
							c0-2.742,2.223-4.964,4.965-4.964s4.964,2.222,4.964,4.964C820.146,429.284,817.923,431.507,815.182,431.507"/>
						<path style="fill:#F4EFE4;" d="M824.918,418.593c0,0.987-0.8,1.787-1.787,1.787c-0.987,0-1.787-0.8-1.787-1.787
							c0-0.987,0.8-1.788,1.787-1.788C824.119,416.805,824.918,417.606,824.918,418.593"/>
					</g>
				</g>
				<g>
					<g>
						<path style="fill-rule:evenodd;clip-rule:evenodd;fill:#F4EFE4;" d="M766.798,415.604c-2.714-2.716-6.322-4.212-10.168-4.213
							c-7.922,0-14.37,6.445-14.373,14.367c0,2.533,0.661,5.005,1.919,7.184l-2.039,7.446l7.62-1.999
							c2.099,1.146,4.463,1.748,6.868,1.749h0.006c7.921,0,14.37-6.446,14.373-14.369
							C771.006,421.931,769.512,418.321,766.798,415.604 M756.632,437.712h-0.005c-2.143-0.001-4.246-0.576-6.08-1.664l-0.436-0.26
							l-4.521,1.186l1.207-4.408l-0.284-0.451c-1.196-1.902-1.827-4.099-1.827-6.356c0.003-6.584,5.362-11.941,11.952-11.941
							c3.191,0.001,6.19,1.245,8.446,3.502c2.256,2.257,3.497,5.258,3.496,8.449C768.575,432.355,763.216,437.712,756.632,437.712"
							/>
						<path style="fill-rule:evenodd;clip-rule:evenodd;fill:#F4EFE4;" d="M763.184,428.768c-0.359-0.18-2.124-1.048-2.453-1.169
							c-0.33-0.119-0.569-0.179-0.808,0.181c-0.24,0.359-0.928,1.168-1.138,1.407c-0.209,0.239-0.419,0.27-0.778,0.09
							c-0.359-0.18-1.516-0.559-2.888-1.781c-1.067-0.952-1.788-2.128-1.997-2.488c-0.21-0.359-0.023-0.553,0.157-0.732
							c0.161-0.16,0.359-0.419,0.539-0.629c0.179-0.209,0.239-0.359,0.359-0.599c0.12-0.239,0.059-0.449-0.03-0.63
							c-0.09-0.179-0.808-1.946-1.107-2.665c-0.291-0.701-0.587-0.606-0.808-0.616c-0.209-0.011-0.449-0.012-0.688-0.012
							c-0.239,0-0.629,0.09-0.958,0.449c-0.329,0.359-1.257,1.228-1.257,2.994c0,1.768,1.287,3.475,1.467,3.714
							c0.179,0.239,2.532,3.867,6.135,5.421c0.856,0.371,1.526,0.592,2.047,0.757c0.86,0.273,1.643,0.234,2.262,0.142
							c0.69-0.103,2.125-0.869,2.424-1.708c0.299-0.838,0.299-1.557,0.209-1.707C763.783,429.037,763.544,428.948,763.184,428.768"
							/>
					</g>
				</g>
			</g>
		</g>
		<text transform="matrix(1 0 0 1 414.1869 435.3172)" style="fill:#FDFCFD; font-family:'Palanquin-Bold'; font-size:28.1013px;">www.musicfestival.com</text>
	</g>
</g>
</svg>
