<?xml version="1.0" standalone="no"?>
<!DOCTYPE svg PUBLIC "-//W3C//DTD SVG 20010904//EN"
 "http://www.w3.org/TR/2001/REC-SVG-20010904/DTD/svg10.dtd">
<svg version="1.0" xmlns="http://www.w3.org/2000/svg"
 width="939.000000pt" height="939.000000pt" viewBox="0 0 939.000000 939.000000"
 preserveAspectRatio="xMidYMid meet">
<metadata>
Created by potrace 1.14, written by Peter Selinger 2001-2017
</metadata>
<g transform="translate(0.000000,939.000000) scale(0.100000,-0.100000)"
fill="#000000" stroke="none">
<path d="M5715 9369 c3 -15 0 -19 -10 -15 -19 7 -31 -10 -34 -50 -1 -9 -6 -12
-13 -8 -10 6 -10 4 0 -7 19 -20 15 -29 -14 -29 -23 0 -26 -4 -22 -25 3 -14 1
-23 -6 -22 -6 1 -10 -5 -8 -13 1 -10 -2 -9 -13 4 -15 19 -15 19 -15 -1 0 -14
8 -23 23 -26 12 -2 1 -5 -25 -6 -50 -1 -57 -7 -35 -30 8 -10 8 -12 0 -7 -7 4
-13 -4 -15 -21 -2 -16 -9 -29 -15 -29 -7 -1 -18 -2 -24 -3 -5 0 -8 -4 -5 -9 2
-4 -2 -16 -10 -27 -13 -17 -16 -18 -24 -5 -7 11 -10 4 -10 -24 0 -22 -3 -36
-7 -33 -3 4 -12 2 -20 -5 -11 -9 -12 -7 -7 7 5 12 4 16 -3 12 -6 -4 -10 -18
-10 -33 0 -14 -6 -31 -13 -37 -10 -9 -11 -9 -6 1 4 7 1 12 -8 12 -11 0 -16 -9
-16 -30 0 -16 -5 -30 -11 -30 -8 0 -8 -5 1 -15 7 -9 8 -15 2 -15 -16 0 -22 26
-9 41 10 11 9 11 -5 1 -13 -10 -17 -10 -21 0 -2 7 -4 0 -4 -17 -1 -63 -6 -73
-31 -69 -22 4 -24 2 -20 -21 5 -22 2 -25 -16 -23 -17 2 -21 -2 -21 -25 1 -24
-3 -27 -25 -25 -21 3 -24 -1 -22 -19 2 -13 -2 -31 -8 -40 -10 -16 -11 -16 -6
-1 3 11 -1 16 -12 15 -10 0 -18 -8 -19 -16 -1 -9 -4 -25 -6 -36 -3 -11 -6 -26
-6 -32 -1 -7 -6 -13 -12 -13 -5 0 -7 4 -4 10 3 5 2 17 -3 26 -6 11 -11 13 -16
5 -4 -6 -2 -11 4 -11 8 0 8 -6 0 -20 -6 -10 -9 -25 -8 -32 2 -7 -7 -14 -19
-16 -17 -2 -23 -10 -23 -28 0 -14 -5 -24 -12 -23 -31 4 -40 -2 -35 -21 3 -11
-1 -26 -8 -34 -9 -9 -10 -17 -4 -23 6 -6 5 -10 -5 -10 -14 0 -16 14 -4 33 4 6
1 11 -7 11 -8 0 -12 -4 -9 -8 7 -11 -35 -51 -46 -44 -5 3 -7 -4 -5 -15 2 -11
0 -20 -4 -20 -4 0 -7 -10 -7 -22 1 -17 -4 -23 -21 -22 -17 0 -21 -5 -20 -25 2
-22 -2 -25 -20 -23 -19 3 -23 -2 -23 -22 0 -24 -8 -30 -36 -27 -6 1 -11 -5
-11 -14 0 -8 4 -12 8 -10 4 3 2 -6 -4 -20 -7 -13 -13 -20 -15 -15 -8 24 -32 9
-32 -20 0 -32 -8 -37 -30 -17 -8 6 -5 1 7 -13 21 -24 21 -26 3 -26 -10 0 -17
4 -14 7 2 4 1 10 -4 13 -4 2 -9 -9 -10 -26 -3 -39 -10 -51 -28 -44 -18 7 -30
-14 -13 -25 13 -8 10 -10 -38 -25 -7 -2 -14 -15 -14 -29 -2 -37 -3 -43 -11
-50 -4 -4 -5 4 -2 19 3 19 1 24 -10 20 -9 -3 -12 -12 -9 -21 4 -10 2 -14 -4
-10 -5 3 -9 -3 -8 -16 3 -40 -5 -50 -27 -30 -17 16 -18 16 -12 0 3 -10 1 -17
-5 -17 -7 0 -9 -10 -5 -27 6 -24 5 -26 -8 -16 -11 10 -17 10 -26 1 -15 -15
-16 -41 0 -32 7 4 8 3 4 -4 -4 -7 -19 -12 -33 -12 -20 0 -24 -4 -20 -20 3 -11
1 -20 -5 -20 -5 0 -6 -6 -2 -12 6 -10 5 -10 -7 -1 -9 8 -20 9 -29 3 -8 -6 -12
-10 -8 -10 4 0 3 -11 -2 -25 -6 -16 -6 -25 1 -25 5 0 4 -6 -3 -14 -7 -7 -25
-13 -40 -12 -20 2 -26 -2 -25 -16 1 -21 13 -24 20 -5 4 9 6 9 6 0 2 -21 -21
-27 -34 -9 -11 15 -13 14 -14 -9 -3 -54 -4 -56 -23 -52 -17 5 -22 -3 -19 -30
2 -11 -15 -17 -39 -15 -3 0 -7 -9 -7 -20 -2 -25 -6 -29 -30 -31 -11 0 -20 -7
-20 -14 0 -13 11 -17 37 -13 8 1 12 -1 8 -5 -4 -4 -18 -9 -30 -10 -41 -4 -43
-5 -29 -14 14 -9 7 -31 -10 -31 -6 0 -8 4 -4 9 3 5 2 12 -3 15 -5 3 -9 0 -10
-7 -1 -7 -3 -23 -4 -37 -2 -17 -9 -25 -23 -25 -13 0 -21 -8 -23 -22 -2 -12
-10 -27 -18 -34 -12 -10 -13 -9 -8 6 5 13 4 16 -4 11 -7 -4 -12 -23 -12 -42 0
-26 -4 -34 -17 -34 -15 0 -16 2 -3 10 12 7 11 9 -6 8 -11 -1 -21 -8 -21 -15 0
-6 3 -10 7 -8 3 2 12 0 20 -6 12 -6 9 -9 -10 -9 -15 0 -31 -5 -38 -12 -9 -9
-12 -9 -12 3 0 12 -2 12 -10 -1 -5 -8 -10 -19 -10 -25 0 -5 5 -3 10 5 8 13 10
13 10 1 0 -11 3 -10 13 3 12 16 14 16 14 2 0 -9 -4 -17 -9 -17 -4 -1 -12 -3
-18 -4 -5 -1 -16 -3 -22 -4 -9 -1 -8 -4 2 -11 12 -7 12 -12 2 -22 -7 -7 -20
-13 -30 -13 -12 0 -16 -7 -14 -22 3 -19 -1 -23 -23 -23 -18 0 -25 -4 -22 -12
7 -19 -10 -58 -25 -57 -10 0 -10 2 0 6 6 2 12 9 12 14 0 4 -7 6 -16 2 -8 -3
-13 -12 -10 -19 3 -7 1 -16 -5 -19 -5 -4 -6 -12 -2 -18 4 -7 -1 -6 -10 2 -19
15 -31 9 -33 -17 -1 -10 -2 -28 -3 -41 -1 -17 -6 -22 -18 -19 -10 2 -27 -5
-37 -16 -16 -16 -17 -18 -3 -13 11 4 17 1 17 -7 0 -8 -10 -13 -22 -12 -17 1
-24 -5 -26 -22 -3 -17 -8 -22 -20 -17 -13 5 -12 1 3 -17 11 -13 13 -17 5 -10
-22 19 -39 15 -33 -8 5 -18 -8 -26 -39 -21 -3 0 -5 -7 -3 -17 1 -9 0 -21 -4
-27 -3 -5 -6 -19 -6 -30 0 -16 -6 -19 -27 -17 -24 3 -26 0 -22 -22 3 -20 0
-25 -18 -28 -15 -2 -22 -9 -20 -19 1 -9 -5 -23 -15 -30 -9 -8 -14 -9 -10 -3 3
6 0 11 -8 11 -9 0 -15 -5 -14 -11 3 -29 -2 -47 -12 -40 -8 4 -9 0 -4 -15 4
-13 2 -21 -5 -21 -6 0 -9 4 -6 8 2 4 1 14 -5 22 -7 12 -9 11 -10 -5 -1 -11 -1
-23 0 -27 1 -8 -2 -9 -31 -12 -7 0 -16 -20 -21 -44 -7 -39 -10 -41 -29 -31
-13 7 -18 7 -14 1 3 -6 1 -14 -5 -18 -9 -5 -7 -11 6 -21 18 -13 18 -13 -1 -15
-10 0 -24 -1 -31 -1 -6 0 -14 -6 -17 -14 -4 -9 -2 -12 7 -7 8 5 7 2 -2 -9 -7
-9 -22 -17 -32 -17 -11 0 -18 -3 -18 -7 3 -21 -2 -44 -9 -39 -4 2 -14 0 -22
-6 -12 -8 -12 -9 2 -4 19 6 33 -8 23 -24 -5 -8 -12 -7 -23 2 -12 10 -14 10 -8
1 4 -7 2 -13 -4 -13 -6 0 -8 -11 -6 -23 3 -16 -1 -24 -10 -24 -8 0 -14 4 -14
9 0 5 -5 6 -10 3 -6 -3 -10 -17 -10 -30 0 -17 -6 -25 -22 -27 -20 -3 -24 -12
-30 -70 -1 -10 -6 -18 -11 -18 -5 0 -6 12 -2 27 5 23 4 25 -9 14 -9 -8 -16
-21 -16 -30 0 -9 -5 -22 -12 -29 -9 -9 -9 -12 2 -12 7 0 11 -2 8 -5 -8 -8 -38
6 -38 17 0 5 4 7 9 3 5 -3 12 -1 15 4 7 10 -20 9 -30 -2 -4 -3 -1 -14 6 -22
11 -13 11 -16 -1 -13 -10 2 -13 -6 -12 -27 1 -16 -1 -22 -3 -12 -8 25 -34 3
-34 -29 0 -19 -5 -24 -26 -24 -14 0 -23 -4 -19 -9 3 -5 1 -12 -5 -16 -6 -4 -7
-11 -4 -17 4 -6 -1 -8 -14 -4 -17 6 -21 2 -24 -21 -2 -20 -8 -27 -20 -25 -10
2 -18 -1 -19 -5 0 -4 -2 -15 -4 -23 -3 -8 -6 -24 -8 -35 -2 -11 -13 -21 -26
-23 -16 -3 -21 -9 -19 -25 2 -12 -1 -22 -7 -22 -23 -2 -55 -17 -55 -26 0 -6 5
-7 11 -3 7 4 10 1 7 -7 -3 -8 -15 -13 -26 -11 -12 2 -22 -2 -22 -8 0 -6 5 -8
13 -4 9 6 9 5 0 -8 -7 -8 -9 -18 -5 -23 4 -4 -3 -5 -16 -2 -16 4 -25 0 -28
-11 -3 -9 -10 -25 -15 -36 -7 -11 -7 -16 -1 -12 6 3 9 -2 8 -11 -2 -10 -11
-18 -22 -18 -11 0 -20 -10 -24 -25 -4 -16 -12 -24 -23 -22 -16 3 -19 -1 -21
-30 -1 -14 -16 -28 -29 -28 -5 0 -5 5 -1 12 5 7 3 8 -5 4 -7 -5 -10 -14 -7
-22 7 -17 -20 -45 -38 -38 -9 4 -13 -2 -11 -20 2 -14 -1 -26 -6 -26 -6 0 -7
-4 -4 -10 11 -17 -5 -32 -21 -19 -11 9 -14 8 -14 -5 0 -10 -4 -14 -10 -11 -5
3 -10 1 -10 -4 0 -6 5 -11 10 -11 16 0 12 -17 -6 -24 -8 -3 -12 -2 -9 4 3 6 2
10 -3 10 -11 0 -26 -30 -23 -43 1 -5 -8 -11 -19 -14 -11 -3 -21 -10 -21 -17
-1 -6 -2 -15 -4 -21 -1 -5 -3 -14 -3 -19 -1 -5 -9 -3 -17 4 -20 17 -32 5 -15
-15 11 -13 10 -14 -4 -9 -12 5 -15 2 -10 -10 5 -14 2 -16 -22 -11 -23 4 -25 3
-9 -4 19 -8 19 -9 2 -16 -15 -6 -16 -10 -5 -16 10 -7 9 -9 -5 -9 -14 0 -17 -5
-12 -20 5 -14 2 -20 -9 -20 -9 0 -16 5 -16 11 0 5 4 7 10 4 6 -3 7 1 4 9 -10
27 -20 18 -22 -21 -4 -47 -9 -55 -33 -48 -17 6 -19 3 -15 -19 5 -29 -9 -43
-27 -27 -10 7 -13 3 -15 -16 -2 -31 -4 -34 -29 -37 -12 -2 -17 -10 -15 -24 2
-15 -3 -21 -19 -24 -14 -2 -23 -11 -26 -27 -2 -14 -9 -31 -16 -40 -9 -12 -9
-13 1 -7 6 4 12 2 12 -4 0 -6 -6 -10 -12 -9 -31 4 -40 -2 -35 -21 4 -16 0 -20
-19 -20 -15 0 -24 -6 -24 -15 0 -8 -6 -15 -12 -15 -10 0 -10 -2 -1 -8 8 -5 9
-13 3 -22 -7 -10 -10 -11 -10 -2 0 6 -6 12 -14 12 -10 0 -13 -8 -10 -25 4 -25
-6 -31 -44 -26 -6 1 -12 -3 -12 -9 0 -5 5 -10 10 -10 18 0 10 -17 -12 -28 -13
-6 -17 -11 -10 -11 6 -1 12 -6 12 -12 0 -5 -4 -7 -10 -4 -5 3 -10 2 -10 -4 0
-5 -10 -13 -21 -16 -16 -5 -18 -9 -9 -15 21 -13 2 -32 -20 -20 -16 8 -18 7
-15 -8 2 -10 -1 -25 -6 -33 -8 -12 -10 -12 -18 0 -7 11 -10 9 -16 -8 -3 -11
-3 -25 0 -31 3 -5 3 -10 -2 -11 -24 -2 -46 -8 -51 -15 -4 -4 0 -5 8 -2 11 4
16 0 16 -13 0 -12 -4 -15 -12 -8 -8 6 -11 -3 -11 -36 0 -34 4 -45 16 -46 12 0
11 -3 -4 -9 -14 -6 -15 -9 -5 -9 9 -1 22 5 29 11 9 8 11 8 8 2 -8 -14 17 -26
38 -18 11 5 13 2 9 -10 -3 -9 -10 -13 -15 -10 -5 3 -9 1 -9 -4 0 -13 19 -20
47 -17 22 2 27 -5 24 -32 -1 -6 11 -13 26 -15 15 -2 27 -8 26 -14 -1 -6 4 -11
12 -11 7 0 11 7 7 15 -3 10 -1 13 7 8 6 -4 9 -16 6 -27 -5 -16 -1 -19 25 -19
27 0 31 -3 27 -19 -3 -13 1 -21 14 -24 11 -3 19 0 19 6 0 7 5 4 11 -7 9 -15
13 -16 20 -5 7 11 9 11 9 1 0 -7 4 -11 9 -8 5 4 7 -3 4 -14 -4 -16 0 -20 20
-20 14 0 29 -5 32 -10 4 -6 11 -8 16 -5 5 4 9 1 9 -4 0 -15 -13 -14 -30 2 -12
10 -12 9 -2 -4 6 -9 9 -18 6 -22 -9 -8 19 -3 35 7 10 6 12 5 7 -2 -4 -7 -1
-12 7 -12 8 0 18 -7 21 -16 5 -13 4 -14 -7 -6 -11 9 -14 8 -14 -4 0 -10 7 -14
19 -11 10 3 22 -2 28 -11 5 -10 10 -12 10 -7 0 6 8 11 18 12 15 1 18 -4 14
-23 -5 -26 6 -31 27 -12 11 11 13 11 7 0 -7 -11 5 -16 40 -15 6 0 11 -9 10
-21 -1 -16 5 -21 24 -21 16 0 25 -6 25 -17 0 -24 7 -28 52 -30 32 -1 38 -4 29
-14 -6 -6 -12 -8 -14 -3 -2 5 -8 9 -13 9 -4 0 -6 -7 -3 -15 4 -8 13 -15 21
-15 8 0 25 -13 38 -29 18 -21 31 -27 49 -24 19 4 25 0 28 -18 2 -18 10 -23 42
-26 22 -1 45 -8 50 -14 8 -7 2 -9 -19 -4 -26 5 -27 4 -7 -4 12 -6 22 -14 22
-19 0 -5 11 -7 24 -5 20 4 23 1 22 -19 -1 -19 4 -23 27 -22 20 1 27 -3 23 -13
-4 -10 -1 -11 14 -3 13 7 21 7 26 -2 4 -7 3 -8 -4 -4 -7 4 -12 3 -12 -3 0 -5
-8 -12 -17 -15 -10 -3 -6 -4 10 -2 15 2 27 -1 27 -6 0 -5 9 -6 20 -3 19 6 26
-7 21 -37 0 -5 13 -8 30 -8 22 0 30 -4 26 -13 -3 -8 -1 -20 5 -28 8 -11 9 -10
4 4 -3 9 -1 17 5 17 6 0 7 5 4 10 -3 6 -1 10 5 10 7 0 9 -8 4 -22 -3 -13 -3
-20 1 -16 4 4 16 -2 26 -13 16 -19 18 -19 22 -2 3 12 5 10 6 -8 1 -21 7 -28
32 -33 22 -4 30 -10 25 -21 -3 -8 -1 -16 4 -16 6 -1 15 -3 20 -4 6 -1 21 -3
35 -4 15 -1 25 -7 25 -17 0 -8 -4 -12 -10 -9 -5 3 -10 1 -10 -4 0 -9 45 -17
73 -12 10 1 9 -7 -3 -29 -9 -17 -7 -19 17 -16 38 5 76 -11 70 -28 -3 -8 1 -22
9 -33 14 -17 14 -17 8 1 -6 16 -4 17 12 8 10 -5 23 -10 27 -10 5 0 12 -3 15
-7 4 -4 1 -5 -7 -3 -7 2 -16 -3 -18 -9 -3 -9 6 -13 27 -13 17 0 29 -4 26 -8
-2 -4 0 -14 6 -22 8 -12 9 -12 4 2 -3 10 -1 20 4 23 6 4 10 1 10 -5 0 -6 4 -9
8 -6 5 3 9 -1 9 -9 0 -8 -5 -12 -11 -9 -6 3 -2 -2 9 -11 12 -9 21 -11 23 -5 7
19 22 10 22 -14 0 -26 12 -34 50 -31 25 2 43 -12 34 -27 -10 -16 -26 -8 -19
10 5 13 3 14 -6 5 -13 -13 -4 -34 14 -32 46 6 67 -2 67 -23 0 -19 5 -23 33
-22 34 0 57 -11 57 -30 0 -6 -5 -4 -10 4 -9 13 -10 13 -10 0 0 -12 -2 -12 -9
-2 -7 11 -9 11 -14 0 -3 -9 3 -15 19 -16 13 -1 35 -2 49 -3 24 -1 29 -17 10
-31 -10 -7 15 -12 43 -9 7 1 12 -9 12 -24 0 -23 4 -25 40 -25 30 0 42 -5 47
-17 12 -34 25 -44 39 -32 11 9 14 6 14 -15 0 -21 5 -26 28 -28 49 -2 52 -3 53
-13 1 -18 21 -35 41 -35 15 0 18 -5 13 -20 -6 -20 3 -23 75 -24 9 0 16 -8 16
-18 0 -20 -11 -24 -21 -8 -3 6 -11 10 -18 10 -25 0 33 -30 62 -32 34 -2 37 -7
18 -27 -9 -11 -9 -13 1 -7 6 4 12 2 12 -4 0 -6 4 -9 9 -6 16 10 40 -5 36 -23
-3 -17 5 -19 67 -22 11 0 15 -7 13 -20 -2 -10 0 -20 6 -20 5 -1 18 -3 29 -4
11 -1 23 -3 26 -4 4 0 1 -7 -5 -15 -9 -11 -9 -16 0 -22 7 -4 9 -3 6 2 -3 6 2
15 12 21 14 9 18 8 18 -3 0 -7 -4 -11 -9 -8 -4 3 -8 0 -8 -5 0 -12 8 -14 55
-12 l30 0 -32 -10 c-18 -5 -33 -12 -33 -15 0 -3 9 -2 20 1 13 4 22 1 26 -9 3
-9 16 -16 29 -16 13 0 26 -7 29 -16 3 -8 2 -12 -4 -9 -6 3 -10 1 -10 -4 0 -6
11 -11 25 -11 14 0 25 -5 25 -11 0 -8 4 -8 13 -1 8 7 16 5 27 -6 13 -14 12
-15 -3 -9 -22 8 -22 -2 0 -19 13 -9 22 -9 30 -2 7 6 13 7 13 3 0 -4 7 -2 15 5
8 7 15 18 15 24 0 6 -5 4 -10 -4 -8 -13 -10 -12 -10 3 0 14 -16 22 -42 18 -4
0 -6 12 -6 27 1 56 -1 62 -24 59 -14 -1 -22 3 -20 11 1 6 -3 12 -9 12 -8 0 -8
4 0 14 9 11 7 13 -11 12 -16 -1 -24 6 -28 24 -4 16 -12 24 -23 22 -17 -3 -18
0 -21 50 -1 15 -6 31 -10 35 -5 4 -6 3 -3 -3 4 -6 -1 -20 -9 -30 -9 -10 -13
-13 -9 -6 3 6 1 12 -4 12 -6 0 -11 5 -11 11 0 5 5 7 10 4 6 -3 10 -1 10 4 0 6
-6 11 -14 11 -9 0 -12 8 -8 25 2 14 0 25 -7 25 -5 0 -8 -6 -5 -13 3 -8 -3 -20
-13 -28 -16 -13 -17 -12 -5 3 11 13 11 20 0 37 -7 12 -17 21 -23 21 -5 0 -3 5
5 10 12 8 10 10 -10 10 -25 0 -29 6 -33 62 -1 15 -3 15 -20 -2 -22 -24 -24
-25 -24 -2 0 64 -4 82 -18 82 -8 0 -15 -5 -15 -11 0 -5 4 -8 8 -5 5 3 9 -1 9
-8 0 -27 -23 -11 -25 18 -4 52 -11 65 -34 61 -16 -3 -19 0 -15 15 5 18 -7 25
-35 21 -4 0 -7 7 -8 17 -3 66 -5 70 -27 67 -19 -2 -23 3 -23 26 0 19 -5 29
-15 29 -16 0 -16 -20 0 -33 6 -5 5 -7 -3 -5 -8 2 -14 8 -14 13 0 6 -4 17 -9
26 -5 10 -4 21 4 28 9 10 9 12 -3 9 -8 -2 -14 2 -13 8 1 7 -6 10 -16 7 -14 -4
-20 3 -25 29 -5 24 -9 29 -15 19 -5 -7 -14 -10 -20 -6 -9 5 -9 10 0 21 7 9 8
14 1 14 -6 0 -12 12 -14 28 -2 22 -7 26 -27 24 -13 -2 -21 1 -17 6 8 13 -3 42
-16 42 -5 0 -6 -6 -2 -12 5 -10 4 -10 -6 -1 -14 13 -18 27 -23 72 -2 24 -27
43 -27 21 0 -6 4 -9 9 -5 6 3 9 -4 8 -15 -1 -20 -17 -29 -17 -9 0 5 -3 8 -7 6
-5 -3 -8 8 -9 23 -1 32 -29 68 -37 47 -2 -6 -4 2 -5 19 0 25 3 31 18 30 11 0
19 1 18 4 -1 3 4 15 10 27 8 15 9 24 2 28 -8 5 -8 11 0 20 7 8 7 15 1 19 -5 3
-7 23 -5 44 10 79 11 127 2 139 -5 7 -5 14 2 18 6 3 8 9 6 13 -2 4 17 8 42 9
34 2 43 0 32 -7 -11 -7 -11 -10 -2 -10 7 0 10 -4 7 -10 -4 -6 5 -10 19 -10 23
0 31 -9 27 -33 -1 -5 3 -6 8 -3 5 4 11 2 13 -3 2 -8 31 -16 71 -20 4 -1 7 -9
5 -19 -2 -10 3 -17 14 -17 9 0 20 -4 24 -8 4 -4 14 -1 23 5 9 7 13 8 9 4 -4
-5 -3 -14 2 -21 7 -8 5 -12 -5 -12 -8 0 -11 5 -8 10 3 6 1 7 -5 3 -19 -12 -14
-23 11 -24 12 -1 31 -3 42 -6 11 -2 24 -5 28 -5 5 -1 5 -6 2 -11 -4 -6 -12 -7
-18 -3 -8 4 -7 1 1 -9 7 -9 24 -15 38 -13 13 1 27 -2 30 -7 3 -4 10 -5 16 -2
6 4 9 3 5 -2 -9 -15 17 -43 38 -41 11 1 20 -4 21 -10 1 -7 2 -17 3 -23 0 -5
12 -10 26 -10 18 0 25 -5 25 -20 0 -13 7 -20 20 -21 19 -1 31 -4 48 -9 4 -1
10 -2 13 -2 4 1 6 -6 5 -15 0 -10 9 -19 22 -22 13 -3 23 -9 23 -13 -2 -20 0
-20 15 -2 14 16 14 15 -1 -9 -12 -21 -13 -28 -3 -26 7 1 28 1 47 0 28 -1 33
-4 28 -21 -3 -13 0 -20 9 -21 8 -1 19 -2 24 -3 12 -1 30 -27 25 -36 -2 -3 11
-6 28 -7 51 -4 57 -6 57 -18 0 -6 -9 -11 -20 -12 -13 -1 -18 2 -14 9 4 7 2 8
-5 4 -6 -4 -9 -11 -6 -16 5 -9 15 -10 68 -11 23 -1 27 -5 25 -23 -2 -13 2 -21
12 -21 24 -1 40 -15 33 -30 -5 -14 6 -17 62 -17 43 0 48 2 36 16 -7 9 -8 17
-2 20 5 3 12 0 14 -6 4 -10 6 -10 6 0 1 6 8 12 17 12 11 0 13 6 9 19 -3 11 -1
22 4 26 7 4 9 -1 5 -12 -5 -17 -5 -17 9 0 8 10 18 18 21 18 16 -2 18 0 10 12
-5 7 -1 4 8 -6 16 -17 18 -17 23 -3 3 9 7 23 10 32 3 9 8 14 12 11 3 -4 13 -1
21 6 13 10 14 9 7 -2 -5 -10 -4 -12 3 -7 7 4 12 14 12 22 0 9 -5 12 -12 8 -7
-4 -8 -3 -4 5 4 7 17 11 29 9 18 -2 22 2 20 20 -2 19 2 22 35 23 20 1 41 1 46
0 5 -1 6 5 3 14 -4 8 -1 15 6 16 7 0 3 4 -8 9 l-20 9 20 1 c11 1 29 1 39 0 13
-1 17 3 13 14 -3 8 2 23 11 33 9 11 13 14 9 7 -5 -8 0 -11 17 -10 19 1 22 4
15 17 -10 20 -2 29 27 29 12 0 29 3 38 6 17 7 22 34 6 34 -5 0 -9 -5 -7 -11 1
-6 -3 -13 -9 -16 -6 -2 -11 3 -11 11 0 16 24 29 37 21 5 -3 20 -1 34 5 19 7
24 14 19 26 -5 13 -2 16 9 11 23 -8 52 25 35 42 -10 10 -8 12 8 11 44 -5 58
-1 46 13 -13 16 -5 27 21 27 16 0 23 11 19 32 0 4 7 4 16 1 12 -5 14 -3 8 7
-6 9 -4 11 5 5 10 -6 10 -11 -3 -20 -10 -7 -17 -16 -17 -20 0 -4 6 -2 13 4 8
6 17 8 20 5 4 -4 5 3 2 14 -4 23 10 39 20 23 3 -6 12 -8 20 -5 11 5 12 11 4
25 -5 10 -6 20 -2 20 4 1 18 3 29 4 12 1 32 10 45 20 24 17 24 17 2 10 -14 -4
-23 -2 -23 4 0 6 11 11 25 11 19 0 24 5 22 21 -2 18 4 22 28 24 37 2 52 -3 59
-20 3 -8 -2 -12 -12 -10 -9 1 -16 8 -15 14 5 19 -12 12 -26 -11 -7 -13 -10
-20 -6 -16 5 4 14 0 22 -10 12 -16 13 -16 7 1 -5 13 -2 16 10 11 15 -6 17 -14
21 -66 1 -26 13 -32 30 -18 9 7 15 9 14 4 -1 -5 -1 -26 0 -48 1 -32 4 -37 19
-32 16 6 16 5 -1 -8 -15 -11 -15 -15 -3 -19 8 -3 16 -1 19 6 2 6 6 4 10 -6 3
-9 2 -17 -3 -17 -6 0 -10 -5 -10 -11 0 -5 4 -7 10 -4 7 4 7 -2 1 -18 -6 -14
-7 -28 -3 -33 4 -4 2 -4 -4 -1 -7 4 -17 0 -24 -7 -6 -8 -20 -13 -31 -11 -11 2
-17 0 -14 -6 4 -5 10 -7 15 -4 4 3 10 -2 14 -10 7 -18 -15 -20 -33 -2 -10 10
-11 8 -5 -7 5 -14 4 -17 -5 -11 -10 6 -11 2 -6 -15 5 -15 4 -20 -4 -16 -6 4
-11 1 -11 -6 0 -9 -3 -9 -10 2 -8 12 -10 10 -11 -10 -1 -14 -1 -28 0 -33 0 -4
-5 -8 -12 -8 -6 -1 -16 -2 -22 -4 -5 -1 -14 -3 -19 -3 -5 -1 -3 -9 4 -17 9
-10 9 -15 1 -15 -6 0 -11 -7 -11 -15 0 -8 -4 -15 -9 -15 -6 0 -8 9 -6 20 2 11
0 18 -6 15 -5 -4 -9 -17 -9 -31 0 -13 -4 -25 -10 -25 -5 -1 -16 -2 -22 -3 -7
0 -14 -13 -16 -27 -2 -20 -8 -26 -21 -22 -14 3 -20 -3 -24 -27 -6 -27 -9 -30
-27 -20 -16 9 -20 8 -20 -5 0 -10 5 -13 12 -9 7 4 1 -8 -12 -26 -13 -18 -19
-30 -12 -26 7 4 12 2 12 -3 0 -9 -26 -16 -51 -13 -3 1 -4 -10 -1 -23 2 -15 0
-25 -7 -25 -7 0 -11 7 -9 16 2 10 -4 19 -12 21 -13 4 -13 3 0 -6 11 -8 12 -11
2 -11 -7 0 -10 -4 -7 -10 3 -5 1 -10 -5 -10 -6 0 -8 -4 -5 -10 7 -11 -8 -42
-18 -41 -21 3 -27 -1 -27 -19 0 -18 -10 -25 -32 -21 -5 0 -8 -4 -8 -10 0 -5
-6 -7 -12 -3 -10 6 -10 5 -1 -8 15 -17 8 -28 -19 -28 -11 0 -18 -7 -18 -18 0
-27 -11 -34 -28 -19 -13 9 -14 9 -8 0 4 -8 2 -13 -4 -13 -6 0 -8 -5 -5 -10 9
-15 -14 -40 -31 -33 -10 4 -14 -2 -14 -20 0 -14 -5 -29 -11 -33 -8 -4 -7 -9 2
-16 11 -8 11 -9 -1 -5 -8 2 -16 9 -16 15 -3 25 -5 27 -14 12 -5 -9 -5 -19 1
-26 6 -8 5 -13 -5 -17 -9 -4 -12 -14 -9 -26 4 -17 1 -19 -22 -15 -15 3 -24 1
-21 -5 3 -5 -1 -11 -8 -14 -8 -3 -17 -1 -20 6 -3 7 -5 6 -5 -3 3 -35 -1 -42
-18 -35 -15 5 -16 4 -5 -6 19 -20 14 -38 -9 -34 -17 4 -20 0 -16 -16 3 -12 3
-18 0 -15 -3 3 -12 -2 -19 -12 -8 -10 -13 -12 -14 -4 0 27 -20 10 -20 -18 0
-26 -4 -30 -26 -30 -21 0 -24 -3 -15 -14 9 -10 8 -16 -3 -26 -9 -6 -20 -9 -25
-6 -12 8 -30 -24 -24 -40 2 -7 -6 -10 -20 -9 -17 2 -24 -2 -24 -14 0 -35 -4
-39 -25 -34 -23 5 -23 4 2 -17 21 -18 22 -20 4 -11 -18 9 -23 7 -27 -9 -3 -12
-14 -20 -27 -20 -12 0 -18 -4 -15 -10 4 -6 10 -8 15 -5 5 3 11 1 15 -4 3 -6
-3 -8 -15 -6 -11 2 -22 -1 -25 -6 -4 -5 -11 -7 -16 -3 -5 3 -9 2 -8 -3 3 -19
-2 -34 -10 -29 -4 3 -8 -7 -7 -22 1 -21 -4 -28 -21 -30 -13 -2 -24 -8 -24 -13
-1 -5 -2 -15 -3 -21 0 -7 -10 -13 -21 -13 -14 0 -20 -7 -20 -25 -1 -14 -6 -24
-13 -22 -7 1 -12 -4 -12 -10 0 -9 -4 -8 -10 2 -8 12 -10 9 -10 -12 0 -22 -5
-28 -23 -28 -16 0 -23 -6 -24 -20 -1 -13 2 -18 9 -14 7 4 8 2 4 -5 -4 -6 -18
-9 -32 -7 -17 3 -24 0 -24 -10 0 -9 5 -13 13 -9 6 4 4 0 -7 -9 -10 -8 -16 -22
-13 -30 4 -9 2 -18 -4 -21 -5 -4 -9 -3 -8 2 4 21 -2 33 -16 33 -8 0 -15 -8
-15 -17 0 -15 2 -16 10 -3 6 9 10 10 10 3 0 -6 -4 -15 -10 -18 -5 -3 -10 -16
-10 -28 0 -22 -8 -25 -75 -30 -6 0 -11 -14 -12 -30 0 -16 -7 -33 -14 -38 -12
-7 -11 -9 1 -9 13 0 13 -1 0 -10 -9 -6 -17 -5 -22 3 -8 12 -9 11 -13 -23 -1
-11 -3 -23 -4 -26 0 -4 -9 0 -18 7 -11 10 -14 10 -9 2 7 -12 -6 -18 -29 -13
-5 1 -4 -4 3 -11 20 -21 15 -42 -7 -29 -16 8 -21 6 -26 -11 -5 -14 -2 -25 6
-30 10 -6 4 -9 -18 -9 -30 0 -33 -3 -33 -32 0 -25 -3 -29 -10 -18 -8 13 -10
12 -10 -2 0 -10 5 -18 11 -18 5 0 7 -5 3 -11 -4 -8 -11 -4 -19 11 -10 19 -13
20 -18 6 -5 -12 -3 -15 6 -10 9 5 9 4 1 -5 -6 -7 -21 -13 -32 -14 -12 0 -24
-7 -27 -15 -3 -8 2 -12 12 -10 9 2 18 -4 20 -12 4 -13 3 -13 -6 0 -8 12 -12
10 -19 -10 -5 -14 -8 -28 -5 -33 8 -13 -21 -3 -34 13 -11 13 -12 13 -7 -1 3
-10 1 -20 -5 -23 -6 -4 -8 -13 -4 -21 3 -8 0 -16 -6 -16 -6 -1 -17 -2 -23 -3
-7 -1 -12 -12 -11 -24 2 -18 -2 -22 -27 -22 -25 0 -29 -4 -27 -22 1 -17 -3
-23 -18 -23 -15 0 -20 -7 -20 -25 0 -22 -4 -25 -29 -22 -19 3 -26 0 -21 -7 3
-6 12 -9 18 -5 7 3 4 -1 -5 -9 -10 -8 -15 -17 -11 -20 3 -4 -5 -7 -19 -7 -14
0 -28 -7 -32 -15 -3 -8 -1 -15 5 -15 6 0 7 -5 4 -11 -4 -6 -13 -8 -21 -5 -14
5 -36 -31 -28 -46 2 -3 -7 -5 -21 -3 -25 2 -27 -3 -28 -65 0 -9 -9 -17 -21
-17 -21 -2 -21 -2 -2 13 11 8 18 14 15 15 -2 0 -11 2 -19 4 -12 2 -16 -6 -17
-29 -1 -52 -2 -53 -25 -52 -20 1 -23 -4 -21 -29 1 -16 0 -24 -3 -18 -8 19 -44
-3 -44 -27 0 -13 -7 -20 -20 -20 -12 0 -20 -7 -20 -16 0 -8 -7 -23 -16 -31
-13 -14 -17 -14 -25 -2 -6 10 -9 5 -9 -18 0 -26 -3 -31 -20 -28 -11 2 -22 0
-25 -6 -4 -5 -2 -9 4 -9 6 0 8 -7 5 -15 -4 -8 -17 -15 -30 -15 -19 0 -24 -6
-25 -25 -1 -14 -2 -31 -3 -37 0 -7 -16 -17 -33 -23 -18 -5 -33 -13 -33 -18 0
-4 4 -5 10 -2 5 3 10 -1 10 -9 0 -8 -5 -18 -12 -22 -6 -4 -8 -3 -5 3 4 6 0 14
-9 17 -8 3 -12 2 -9 -4 3 -6 -1 -13 -9 -16 -9 -3 -13 -10 -10 -15 3 -5 0 -9
-6 -9 -6 0 -8 -5 -5 -10 4 -6 1 -9 -6 -8 -7 2 -16 -10 -20 -27 -4 -16 -7 -23
-8 -15 -1 12 -3 12 -10 2 -4 -8 -12 -13 -17 -13 -5 0 -9 -8 -9 -19 0 -11 -4
-19 -10 -19 -5 1 -9 6 -7 13 1 6 -5 2 -13 -8 -8 -11 -15 -28 -15 -38 0 -12 -8
-18 -24 -18 -19 0 -23 -4 -19 -20 5 -19 -4 -25 -34 -21 -7 1 -14 -10 -14 -24
-2 -45 -4 -48 -19 -52 -12 -4 -12 -3 -1 5 10 7 10 11 1 17 -15 9 -30 -13 -22
-34 3 -9 1 -13 -3 -8 -5 4 -15 -5 -22 -20 -9 -20 -11 -22 -7 -5 4 15 1 22 -9
22 -10 0 -13 -8 -9 -26 3 -18 1 -25 -6 -20 -6 3 -13 2 -16 -3 -4 -5 -1 -13 5
-17 8 -5 9 -3 4 7 -5 8 -4 11 1 6 5 -5 9 -14 9 -20 1 -7 7 -11 14 -9 7 1 10
-2 6 -8 -3 -5 -2 -10 4 -10 5 0 8 -9 6 -20 -2 -11 0 -18 5 -15 5 3 7 14 5 24
-2 11 3 22 11 25 9 3 12 11 8 17 -4 8 -3 9 5 5 6 -4 9 -11 7 -15 -3 -4 1 -8 9
-8 9 0 15 10 15 24 0 18 5 23 25 23 14 0 24 3 24 8 -1 4 -1 16 0 27 1 15 3 17
10 7 7 -11 10 -11 22 0 8 7 24 13 36 12 15 -1 20 3 16 13 -4 11 -8 12 -13 3
-4 -7 -13 -9 -19 -6 -17 11 -13 25 7 25 48 2 70 6 68 11 -2 3 1 16 6 30 7 20
11 22 18 10 7 -11 10 -12 10 -2 0 7 4 11 8 8 5 -3 9 1 9 8 0 8 -6 12 -13 9 -6
-2 -15 1 -20 8 -4 7 -3 10 2 6 15 -9 79 8 80 21 1 7 2 17 3 24 1 9 4 9 13 0 7
-7 17 -12 23 -12 5 0 3 5 -5 10 -15 10 -6 13 42 13 10 0 14 5 11 13 -6 17 -15
18 -31 2 -9 -9 -12 -9 -12 -1 0 16 21 28 44 24 16 -2 18 2 13 26 -4 15 -4 22
-1 15 3 -6 10 -10 15 -7 5 4 6 0 3 -8 -3 -8 0 -18 6 -22 6 -4 11 -1 9 6 -4 30
2 39 26 39 20 0 25 5 25 26 0 14 4 23 9 20 17 -11 43 6 38 24 -3 13 2 17 22
16 21 -1 26 3 25 21 -1 16 4 20 17 18 10 -2 23 4 29 13 6 11 9 12 10 4 0 -18
21 3 37 38 6 14 12 19 12 13 1 -7 6 -13 12 -13 6 0 9 7 6 14 -4 10 -1 13 9 9
10 -3 12 0 9 10 -5 10 0 14 17 13 18 -1 23 4 20 22 -1 15 2 22 10 19 19 -6 50
12 42 25 -4 7 -3 8 5 4 6 -4 9 -11 7 -15 -3 -4 1 -8 9 -8 9 0 15 10 15 24 0
19 5 23 33 23 18 0 27 4 20 8 -16 10 1 37 24 37 12 0 18 7 17 22 -1 26 0 27
27 13 15 -8 19 -8 17 2 -2 9 6 12 26 10 23 -3 27 0 23 13 -8 19 13 66 26 58 5
-3 4 -9 -4 -14 -7 -4 -11 -10 -8 -13 9 -9 30 11 33 30 2 13 10 18 25 16 16 -3
21 2 21 21 0 20 5 25 26 25 14 0 31 5 37 11 9 9 9 12 1 9 -11 -3 -14 1 -14 17
0 3 9 1 20 -5 11 -6 20 -7 19 -3 -1 4 -1 17 0 27 1 19 2 19 14 2 12 -16 15
-16 26 -3 9 12 9 17 0 23 -8 5 -9 3 -4 -6 5 -9 4 -11 -4 -6 -6 4 -9 12 -5 17
3 5 9 7 14 4 4 -3 11 1 13 7 4 10 6 10 6 1 2 -22 31 -1 31 22 0 17 5 22 22 21
13 0 23 5 24 12 1 6 2 16 3 20 2 18 31 8 31 -11 0 -31 10 -14 13 22 1 17 5 31
10 31 4 0 12 0 18 0 5 0 7 -5 3 -11 -4 -8 -9 -7 -15 2 -6 10 -9 10 -9 2 0 -6
4 -14 8 -17 10 -6 34 8 31 20 -1 5 -1 18 0 28 1 19 1 19 15 1 13 -18 14 -18
24 2 6 11 10 22 8 24 -2 2 2 10 10 17 8 7 14 8 14 2 0 -5 5 -10 11 -10 6 0 9
9 6 20 -7 26 9 35 30 18 9 -7 14 -8 10 -2 -4 7 1 18 10 25 9 8 14 9 11 4 -4
-6 2 -12 14 -12 19 -2 19 -1 -2 17 -20 17 -20 19 -3 20 63 2 68 5 64 38 -1 7
9 12 24 12 20 0 25 5 25 24 0 21 4 24 25 20 20 -3 25 0 25 15 0 25 9 30 53 33
30 3 34 6 31 26 -3 17 -1 21 7 16 9 -5 10 -2 5 11 -5 13 -3 15 6 8 18 -14 52
-13 38 1 -17 17 -11 26 19 26 25 0 28 3 23 25 -3 16 0 25 8 25 7 0 10 -7 7
-14 -4 -10 -1 -13 8 -9 8 3 13 9 10 13 -3 5 7 10 22 12 16 2 29 9 29 16 1 6 2
17 3 23 0 6 8 9 16 5 8 -3 15 0 15 6 0 6 6 5 17 -3 15 -12 16 -12 8 1 -18 29
-14 40 15 40 30 0 47 14 30 25 -17 10 -2 24 20 18 20 -5 25 4 21 36 -2 7 2 10
8 6 6 -3 11 -2 11 3 0 5 16 8 35 7 19 -2 34 0 33 4 -3 29 4 41 26 41 19 0 24
4 21 20 -3 16 2 20 21 20 22 0 30 13 25 43 0 4 6 7 15 7 12 0 14 -3 6 -13 -8
-9 -8 -17 0 -27 8 -12 9 -12 4 2 -3 10 2 23 12 30 9 7 17 20 17 28 0 9 7 14
18 12 9 -2 17 2 17 7 0 6 10 10 22 8 17 -1 24 4 26 21 3 16 10 22 29 22 23 0
24 2 12 17 -13 15 -12 15 11 3 21 -10 23 -10 12 1 -18 19 -15 26 11 25 17 -1
21 4 19 22 -2 12 2 22 8 22 6 0 9 -4 5 -9 -3 -5 -1 -12 5 -16 6 -4 7 -11 4
-17 -4 -7 -2 -8 5 -4 9 6 9 11 1 21 -13 16 1 27 34 29 15 1 21 8 20 24 -1 19
4 22 25 20 18 -2 27 2 29 16 3 13 0 16 -9 11 -8 -5 -10 -4 -5 3 4 7 14 12 22
12 8 0 14 6 14 13 0 8 4 7 10 -3 8 -12 10 -12 10 -1 0 10 3 11 14 2 15 -13 32
1 21 18 -8 14 24 29 49 24 20 -3 20 -3 1 6 -11 4 -24 6 -29 3 -5 -2 -6 1 -4 9
3 8 13 13 23 11 11 -2 14 1 9 9 -4 7 -3 10 4 5 6 -3 14 -2 17 4 5 8 11 7 21
-1 11 -9 14 -7 14 15 0 21 5 26 25 26 15 0 25 5 24 13 -3 27 2 35 21 30 14 -4
21 1 25 19 4 14 13 25 21 25 12 0 12 -3 -1 -17 -13 -14 -12 -16 8 -17 12 -1
17 1 10 5 -17 11 10 44 31 36 12 -5 16 0 16 20 0 21 5 26 24 26 17 0 26 7 30
24 4 15 13 23 23 22 11 0 18 5 17 16 -2 20 22 32 32 16 4 -6 3 -8 -2 -5 -5 3
-10 -3 -10 -14 0 -19 1 -19 13 -3 7 9 10 21 7 25 -3 5 0 9 6 9 6 0 8 11 6 25
-4 24 -4 24 20 8 14 -9 24 -12 23 -7 -5 28 1 35 23 23 18 -10 20 -9 15 6 -4 9
-7 19 -7 21 0 3 -4 3 -9 -1 -5 -3 -12 -1 -15 4 -3 4 2 8 12 8 65 0 72 3 72 28
0 22 4 25 25 21 13 -3 27 0 31 5 3 6 12 8 19 5 8 -3 12 2 10 12 -1 9 2 22 7
29 5 7 7 16 4 21 -3 5 0 9 7 10 67 8 82 17 79 44 -1 3 6 9 14 12 12 5 15 2 10
-11 -5 -15 -4 -15 9 1 8 11 15 28 15 37 0 11 7 16 18 15 9 -2 23 4 30 13 10
12 12 12 6 1 -7 -13 -6 -13 11 0 11 9 16 10 11 3 -4 -8 -2 -13 5 -13 6 0 9 8
6 19 -3 13 3 27 16 38 14 11 17 12 10 3 -10 -13 -8 -16 7 -16 13 0 17 6 14 23
-4 21 8 29 39 24 4 0 7 6 7 15 0 8 4 12 10 9 6 -4 7 1 3 11 -5 13 -2 15 17 9
17 -5 21 -4 15 5 -6 10 -1 11 21 6 19 -4 24 -3 15 2 -11 8 -11 10 0 15 8 4 1
4 -16 1 -23 -4 -27 -3 -15 5 8 6 25 11 37 11 17 0 20 5 17 22 -4 22 -4 22 6
-1 13 -31 24 -19 29 32 1 5 5 6 10 3 12 -8 41 4 41 16 0 5 -4 6 -10 3 -6 -3
-7 1 -4 9 5 12 11 13 25 5 14 -7 19 -6 19 2 0 6 7 9 15 5 8 -3 15 -1 15 4 0 6
-4 10 -10 10 -5 0 -10 7 -10 15 0 20 10 19 26 -2 13 -17 14 -17 8 0 -6 16 4
21 43 20 7 0 11 9 10 21 -2 16 4 22 26 24 25 3 27 6 15 20 -10 12 -10 14 0 8
6 -4 12 -2 12 3 0 6 9 11 20 11 17 0 25 14 22 41 -1 3 5 6 13 6 8 0 12 -4 9
-9 -3 -4 0 -16 6 -25 11 -17 11 -17 6 1 -9 26 9 44 40 40 20 -2 23 0 14 11 -8
10 -8 15 0 20 6 4 9 13 6 21 -3 8 0 13 7 11 7 -1 11 3 10 10 -2 7 3 10 11 7 8
-3 17 -1 20 4 3 6 15 8 25 5 10 -3 22 1 26 8 5 8 4 10 -3 5 -7 -4 -12 -4 -12
1 0 16 15 28 35 28 12 0 19 6 17 14 -2 11 0 12 10 3 10 -7 18 -8 28 0 13 9 13
9 0 5 -8 -2 -20 1 -27 8 -11 12 -2 15 60 16 9 0 17 7 17 15 0 8 -5 14 -11 14
-5 0 -8 -4 -5 -9 4 -5 0 -8 -6 -7 -7 1 -13 6 -13 11 0 10 13 14 53 18 14 1 25
10 29 25 3 15 13 22 30 22 20 0 24 4 20 20 -5 19 13 27 46 21 5 -1 6 3 2 9 -4
7 2 9 19 6 19 -3 23 -1 19 11 -5 12 -7 12 -14 1 -7 -10 -9 -11 -9 0 0 7 -4 10
-10 7 -5 -3 -10 -2 -10 4 0 5 8 10 18 10 40 1 52 5 52 15 0 6 5 4 10 -4 8 -13
10 -12 11 5 1 11 1 23 0 28 0 4 10 7 24 7 14 0 24 3 24 8 -1 4 -1 16 1 27 l1
20 9 -20 c7 -17 9 -17 9 -3 1 11 6 15 15 12 8 -3 17 0 22 7 4 7 3 10 -4 5 -7
-4 -10 1 -9 14 1 11 7 20 15 20 7 0 10 -4 7 -10 -3 -5 -2 -10 2 -10 14 0 34
38 23 45 -6 4 -8 11 -4 16 3 5 2 9 -3 8 -21 -4 -43 2 -43 12 0 5 6 7 13 3 9
-6 9 -4 -1 8 -7 9 -12 22 -11 30 4 30 -2 48 -15 48 -8 0 -16 -6 -18 -12 -4
-11 -8 22 -11 99 -1 12 -5 19 -9 17 -4 -3 -8 0 -8 6 0 6 -5 8 -11 5 -6 -5 -4
-11 7 -19 16 -12 16 -13 -2 -18 -16 -4 -19 1 -21 39 -3 56 -18 84 -41 76 -15
-6 -15 -5 -3 10 12 15 11 17 -5 17 -11 0 -15 4 -9 8 14 10 17 32 4 32 -5 0 -7
5 -3 12 5 7 3 8 -5 4 -7 -5 -10 -14 -8 -20 3 -7 0 -13 -7 -13 -7 0 -13 11 -14
24 -1 14 2 21 8 18 6 -3 10 -1 10 4 0 6 -4 11 -9 11 -5 0 -11 12 -13 28 -2 19
-9 27 -23 27 -16 0 -20 6 -19 33 0 17 -3 32 -8 32 -5 0 -7 4 -3 9 3 5 0 13 -6
17 -7 4 -9 3 -5 -4 3 -5 0 -13 -6 -15 -10 -4 -10 -6 0 -6 16 -1 16 -18 -1 -18
-7 0 -13 17 -15 41 -1 23 -4 50 -6 61 -3 11 -5 24 -5 28 -1 4 -9 7 -18 5 -14
-2 -19 5 -21 30 -2 17 -7 32 -13 32 -5 0 -9 8 -10 18 0 11 -2 12 -6 4 -3 -7 0
-19 6 -26 8 -9 7 -13 -4 -13 -11 0 -15 14 -17 51 0 28 -2 57 -2 65 -1 8 -10
15 -20 17 -24 3 -36 22 -28 43 5 13 3 14 -10 3 -20 -16 -42 6 -28 28 5 8 5 19
1 25 -8 10 -11 28 -12 70 0 16 -2 17 -9 5 -5 -8 -6 -18 -4 -22 3 -4 -3 -5 -12
-1 -11 4 -13 8 -6 11 7 2 12 8 12 13 0 6 -4 8 -9 4 -5 -3 -11 7 -13 22 -2 19
-8 28 -20 27 -18 -2 -20 1 -21 34 -1 9 -8 23 -17 30 -8 8 -10 11 -3 8 15 -8
27 10 13 19 -6 4 -17 2 -24 -4 -14 -12 -14 -11 -16 64 -1 25 -6 43 -11 39 -5
-3 -6 -11 -2 -17 5 -8 2 -8 -9 0 -8 7 -18 10 -21 6 -4 -3 -7 -1 -7 5 0 7 5 12
10 12 6 0 10 5 10 11 0 5 -5 7 -11 3 -7 -4 -10 4 -9 22 3 48 1 51 -27 48 -16
-2 -23 -2 -17 1 7 3 10 15 7 25 -3 11 -9 18 -13 15 -4 -3 -13 2 -19 9 -9 11
-9 16 0 22 7 4 9 3 5 -4 -3 -6 -2 -13 3 -16 5 -3 12 1 15 9 6 17 -16 31 -33
21 -5 -3 -9 10 -9 30 0 20 -5 40 -12 44 -9 6 -9 9 1 14 8 3 3 5 -11 3 -20 -3
-26 1 -27 17 -2 49 -8 74 -15 70 -4 -3 -8 0 -8 6 0 6 -4 8 -10 5 -9 -5 -16 46
-11 83 1 6 -3 12 -8 12 -16 0 -23 -20 -12 -34 8 -9 7 -13 -4 -13 -7 0 -13 3
-12 6 0 3 -3 24 -8 46 -4 22 -8 49 -7 60 2 19 1 18 -7 -1 -17 -38 -26 -33 -28
14 -2 43 -17 67 -35 56 -4 -3 -9 1 -9 8 -1 7 -2 19 -3 26 0 7 -8 17 -16 22
-10 6 -11 10 -2 10 6 0 12 7 12 16 0 14 -1 14 -16 0 -8 -9 -16 -16 -18 -16 -3
0 -8 57 -9 97 0 23 -4 30 -12 23 -19 -16 -35 5 -37 48 -1 24 -6 42 -12 41 -30
-4 -37 2 -33 29 6 38 -8 73 -28 66 -11 -5 -15 1 -15 26 0 22 -4 29 -12 24 -10
-6 -10 -4 0 7 16 18 15 29 -4 29 -8 0 -13 -4 -10 -8 3 -5 0 -9 -7 -9 -17 0
-14 46 4 59 11 8 11 9 -3 4 -23 -7 -33 11 -16 31 11 14 11 16 -3 11 -26 -10
-38 5 -40 49 -2 23 -6 40 -10 38 -10 -7 -40 31 -42 54 -1 21 -17 31 -17 11 0
-5 -5 -10 -11 -10 -6 0 -9 6 -6 14 3 7 -1 23 -9 34 -8 12 -10 23 -5 27 5 3 7
18 5 32 -6 32 -14 43 -14 20 0 -10 -4 -17 -10 -17 -5 0 -10 -5 -10 -11 0 -8 6
-7 18 2 15 13 16 12 3 -4 -20 -26 -40 -4 -23 24 8 12 9 18 3 14 -7 -4 -11 5
-11 23 0 28 -2 29 -42 28 -39 -1 -43 -4 -46 -28 -3 -22 -7 -26 -28 -22 -15 3
-23 1 -20 -5 8 -13 -4 -42 -15 -35 -13 8 -11 -10 4 -26 6 -8 3 -7 -9 3 -28 23
-31 22 -26 -13 4 -31 -13 -41 -34 -20 -6 6 -10 -2 -11 -25 0 -19 -3 -42 -7
-51 -5 -14 -9 -14 -23 -3 -12 10 -14 10 -9 2 5 -9 1 -13 -11 -14 -10 0 -13 -3
-5 -6 22 -9 13 -33 -13 -33 -20 0 -25 -5 -26 -27 -1 -16 -1 -32 0 -38 1 -5 -6
-1 -14 9 -8 11 -16 16 -16 10 -1 -5 -2 -13 -4 -19 -1 -5 -3 -15 -3 -21 -1 -6
-12 -10 -25 -9 -13 2 -24 -2 -25 -9 0 -6 -2 -26 -3 -43 -2 -28 -6 -33 -27 -33
-20 0 -24 -4 -20 -24 4 -21 1 -25 -21 -28 -20 -2 -25 -8 -23 -25 3 -22 -10
-25 -36 -9 -7 4 -12 4 -11 -1 1 -4 1 -20 0 -35 -1 -21 -5 -25 -21 -21 -19 5
-25 -5 -21 -31 1 -5 -5 -16 -14 -26 -8 -9 -12 -20 -8 -25 5 -4 2 -5 -5 -1 -7
4 -15 1 -18 -9 -5 -11 -10 -13 -19 -5 -10 8 -15 7 -21 -2 -4 -7 -4 -10 1 -6 4
4 14 1 21 -7 18 -18 18 -21 -5 -21 -11 0 -17 5 -14 10 4 5 1 6 -6 1 -7 -4 -11
-18 -8 -31 2 -13 1 -23 -2 -22 -29 3 -41 -4 -41 -27 0 -20 -5 -25 -24 -25 -19
0 -24 -4 -21 -19 4 -20 -19 -36 -36 -25 -5 3 -9 2 -8 -3 1 -4 0 -11 -1 -15 -1
-5 -3 -14 -4 -20 0 -7 -10 -13 -21 -13 -20 0 -22 -3 -24 -55 -1 -25 -5 -30
-25 -30 -19 0 -23 -5 -21 -24 3 -20 -1 -24 -21 -21 -20 2 -24 -2 -25 -24 -1
-14 -1 -30 0 -35 1 -5 -5 -3 -14 4 -14 12 -18 11 -26 -1 -5 -8 -7 -19 -4 -26
2 -6 -4 -17 -13 -25 -11 -9 -14 -10 -8 0 4 7 1 12 -8 12 -9 0 -16 -8 -16 -19
0 -11 -4 -23 -10 -26 -5 -3 -10 -11 -10 -16 0 -6 4 -7 10 -4 6 4 7 -1 3 -11
-5 -14 -8 -13 -18 6 -8 15 -15 19 -19 11 -4 -6 -3 -11 3 -11 6 0 8 -7 5 -15
-4 -8 -10 -12 -15 -9 -6 3 -8 -5 -5 -19 3 -15 -1 -24 -10 -24 -7 0 -11 4 -8 9
3 4 1 8 -5 8 -5 0 -11 -12 -13 -27 -2 -20 -9 -29 -25 -31 -17 -3 -23 -10 -23
-28 0 -19 -5 -24 -24 -24 -18 0 -23 -5 -21 -24 2 -19 -1 -23 -21 -20 -20 2
-24 -1 -19 -16 6 -17 -15 -38 -38 -38 -5 0 -12 -4 -15 -8 -4 -4 -1 -4 6 0 7 4
12 2 12 -5 0 -9 3 -9 14 0 14 12 15 10 7 -28 -1 -2 -7 2 -15 8 -17 14 -24 5
-21 -26 1 -19 -3 -23 -25 -23 -23 0 -27 -4 -24 -26 1 -16 -2 -24 -9 -21 -7 2
-12 9 -12 15 0 5 -3 14 -7 18 -4 3 -6 -3 -3 -15 2 -11 0 -21 -6 -21 -5 0 -9
-11 -9 -24 0 -19 -4 -24 -20 -21 -15 3 -20 -2 -20 -18 0 -16 -6 -23 -21 -24
-27 -2 -27 -1 -31 -48 -3 -34 -7 -39 -31 -40 -21 -2 -25 1 -16 11 6 8 15 12
19 9 5 -3 12 0 16 6 4 8 3 9 -4 5 -7 -4 -12 -3 -12 3 0 11 -26 9 -37 -4 -5 -4
-1 -4 7 0 13 8 13 7 1 -8 -7 -9 -19 -17 -25 -17 -7 0 -6 4 2 9 11 6 10 11 -4
25 -9 9 -23 15 -30 12 -8 -3 -11 0 -7 10 4 11 9 12 19 3 9 -8 14 -8 14 -1 0
15 -12 21 -51 23 -27 2 -35 8 -37 22 -2 29 -18 43 -35 29 -11 -9 -14 -8 -14 3
0 14 11 19 30 16 5 -1 6 3 2 9 -3 6 -11 8 -16 4 -5 -3 -15 -1 -22 4 -7 6 -16
11 -22 11 -5 1 -11 6 -11 11 -1 6 -2 15 -3 20 0 6 -14 10 -30 10 -17 0 -33 5
-37 12 -4 7 -3 8 4 4 7 -4 12 -1 12 8 0 16 -11 20 -39 17 -7 -2 -10 2 -6 8 3
6 1 11 -4 11 -6 0 -11 5 -11 11 0 5 5 7 12 3 6 -4 8 -3 4 4 -3 6 -14 11 -24
11 -38 1 -52 5 -52 13 0 5 -6 6 -12 2 -10 -6 -10 -4 0 7 14 16 16 33 2 24 -5
-3 -10 3 -10 15 0 14 -4 19 -12 15 -7 -4 -6 -1 2 7 9 7 14 21 12 31 -2 10 2
25 10 34 7 9 8 14 3 11 -7 -4 -11 3 -11 18 0 13 4 24 9 24 5 0 4 6 -2 14 -10
11 -9 14 3 12 9 -1 19 -6 23 -11 4 -4 3 -5 -3 -2 -13 7 -13 -37 0 -50 4 -4 7
-3 6 2 -1 6 -1 12 0 15 3 8 9 62 11 103 1 20 6 40 11 43 5 3 8 -2 6 -12 -2
-12 4 -19 17 -21 18 -3 18 -2 2 5 -17 7 -18 9 -2 22 13 10 13 15 3 21 -10 7
-10 9 2 9 13 0 13 1 0 10 -10 6 -11 10 -3 10 8 0 11 11 9 30 -2 17 1 30 8 30
6 0 4 5 -4 10 -15 10 -14 10 23 14 11 1 13 8 16 77 1 21 5 28 14 23 8 -6 8 -3
-1 9 -10 12 -11 21 -3 34 10 17 10 17 11 -3 0 -11 7 -21 15 -21 11 0 12 4 4
14 -7 7 -7 13 -2 13 5 0 9 19 8 43 -1 23 3 50 8 61 6 11 5 22 -2 29 -7 7 -2
16 15 30 14 11 23 25 20 33 -3 7 -1 16 3 18 5 3 7 17 6 31 -3 24 4 29 33 26
15 -2 16 15 0 25 -6 4 -8 3 -4 -4 3 -6 -1 -9 -11 -8 -9 2 -18 8 -19 15 -1 6 0
7 3 1 6 -13 23 -3 19 13 -1 7 -1 9 1 5 16 -28 26 22 25 115 -1 9 6 17 14 17 8
0 14 -5 14 -11 0 -5 -4 -8 -8 -5 -5 3 -9 -1 -9 -9 0 -8 6 -15 13 -15 8 0 11
14 10 40 -1 31 2 39 13 35 10 -4 11 -2 5 7 -16 23 -10 53 10 53 17 0 20 8 23
50 4 88 9 120 16 123 16 5 19 1 8 -12 -8 -10 -9 -16 -1 -21 5 -3 10 -5 11 -3
4 15 10 40 12 51 1 6 7 18 11 26 6 9 5 12 0 8 -5 -3 -10 3 -10 14 0 23 4 24
26 4 15 -14 17 -13 17 2 0 10 -4 24 -10 31 -6 8 -6 12 2 12 6 0 11 5 11 11 0
5 -4 7 -10 4 -5 -3 -10 -1 -10 5 0 6 -5 8 -12 4 -7 -4 -8 -3 -4 4 4 6 13 9 21
5 11 -4 15 3 16 28 2 80 4 99 12 99 4 0 12 0 19 0 6 0 4 -6 -6 -13 -16 -12
-16 -14 -2 -14 16 0 19 6 19 41 -1 18 31 58 39 51 2 -3 4 12 3 33 0 25 -4 36
-13 34 -8 -1 -11 2 -7 8 3 6 11 8 16 5 10 -7 11 -6 13 55 1 36 4 44 17 42 9
-1 19 4 22 12 4 10 -1 13 -19 11 -13 -1 -24 2 -24 6 0 5 11 9 25 9 26 0 29 10
27 85 -1 17 0 17 4 3 3 -10 10 -18 15 -18 6 0 7 -6 3 -12 -6 -10 -5 -10 8 0
12 9 14 22 8 52 -4 22 -4 40 0 40 3 0 6 17 5 38 -1 20 2 45 7 55 6 11 5 17 -2
17 -6 0 -8 5 -4 11 5 8 10 6 16 -5 5 -9 6 -21 3 -26 -3 -6 -2 -10 3 -10 15 0
23 28 10 36 -7 5 -7 8 1 13 6 4 12 35 14 69 4 67 10 81 30 64 11 -9 13 0 12
48 0 33 3 60 6 60 4 0 5 10 3 23 -2 12 -2 16 2 9 3 -6 10 -9 16 -6 6 4 6 -2
-1 -14 -7 -14 -8 -23 -1 -27 5 -3 10 -5 11 -3 0 2 3 25 6 53 2 27 10 53 16 57
8 5 8 8 1 8 -11 0 -13 64 -3 75 4 3 12 -2 20 -12 12 -14 12 -16 0 -8 -10 6
-12 4 -6 -5 5 -9 4 -11 -3 -6 -8 5 -10 1 -5 -9 4 -12 8 -13 13 -5 6 9 9 9 12
-1 3 -8 4 17 4 54 -1 38 1 70 5 73 4 2 6 15 5 27 -2 14 2 24 10 24 14 0 14
-18 1 -28 -5 -3 -2 -9 5 -12 8 -3 15 0 16 6 0 7 3 45 5 86 3 54 9 76 21 83 14
8 15 6 4 -17 -8 -19 -9 -28 0 -37 8 -8 9 -5 6 13 -4 17 -3 20 4 11 6 -10 9 0
10 30 0 97 1 98 25 98 17 0 19 2 7 9 -8 6 -17 8 -20 6 -4 -2 -7 2 -7 10 0 8 4
15 9 15 4 0 8 -4 8 -10 0 -5 5 -10 11 -10 5 0 7 5 4 10 -3 6 -2 10 3 10 5 0 8
14 6 31 -3 27 -1 30 19 25 12 -3 16 -3 9 0 -6 3 -9 11 -6 16 4 6 2 8 -3 5 -6
-4 -13 0 -17 8 -4 11 1 15 17 15 17 0 23 6 24 23 5 115 7 125 25 116 10 -5 18
-6 19 -2 0 4 2 16 4 26 2 11 -1 15 -8 10 -9 -5 -9 -3 0 8 12 15 13 18 13 55 0
17 6 28 19 31 16 4 19 15 20 75 2 76 14 113 37 104 14 -5 15 -1 14 71 0 26 3
31 16 26 13 -5 13 -7 2 -14 -10 -7 -11 -9 0 -9 7 0 10 -5 6 -12 -4 -6 -3 -8 3
-5 9 6 14 49 17 154 0 25 8 49 18 59 16 16 16 16 14 -2 -2 -10 -9 -18 -15 -16
-6 1 -11 -2 -11 -7 0 -6 8 -9 19 -8 10 0 18 8 18 17 1 97 4 120 17 120 8 0 17
7 20 16 8 21 8 24 -4 24 -5 0 -9 -5 -7 -11 1 -6 -4 -14 -10 -16 -16 -6 -17 13
-2 23 8 4 7 9 -2 16 -10 6 -7 7 9 3 19 -6 22 -3 22 25 0 22 4 29 13 24 8 -5 8
-2 -2 9 -9 11 -10 17 -2 17 6 0 11 7 11 15 0 8 -6 15 -12 15 -9 0 -8 4 2 10
23 15 32 12 25 -10 -3 -11 -2 -20 3 -20 6 0 10 32 10 73 0 53 4 71 13 69 10
-2 9 0 -1 13 -10 12 -16 13 -28 3 -13 -10 -14 -10 -8 0 4 7 2 12 -8 12 -10 0
-13 -7 -11 -21z m-9 -43 c1 -7 -4 -13 -11 -13 -7 0 -11 7 -10 16 2 9 4 18 4
20 2 8 15 -10 17 -23z m-193 -770 c6 -15 -17 -16 -30 -1 -4 4 -2 5 5 1 6 -4
12 -2 12 3 0 15 7 14 13 -3z m-443 -46 c0 -5 -5 -10 -11 -10 -5 0 -7 5 -4 10
3 6 8 10 11 10 2 0 4 -4 4 -10z m404 -99 c-2 -3 -12 3 -22 13 -16 17 -16 18 5
5 12 -7 20 -15 17 -18z m-534 -41 c0 -5 -7 -6 -17 -3 -12 5 -14 3 -8 -7 5 -9
4 -11 -4 -6 -6 4 -9 12 -6 17 8 12 35 12 35 -1z m471 -93 c-10 -9 -11 -8 -5 6
3 10 9 15 12 12 3 -3 0 -11 -7 -18z m-814 -329 c-3 -8 -6 -5 -6 6 -1 11 2 17
5 13 3 -3 4 -12 1 -19z m467 -804 c3 -8 2 -12 -4 -9 -6 3 -10 10 -10 16 0 14
7 11 14 -7z m-104 -259 c9 6 7 -10 -5 -37 -4 -10 -12 -18 -17 -18 -7 0 -7 4 0
13 5 6 8 23 6 37 -1 14 0 19 2 12 3 -6 9 -10 14 -7z m-1404 -221 c2 -12 -1
-13 -12 -3 -7 6 -11 16 -8 21 7 11 17 3 20 -18z m1320 -81 c-3 -3 -8 2 -12 11
-3 9 -10 13 -15 10 -5 -3 -6 2 -3 11 6 14 9 13 21 -5 8 -12 12 -24 9 -27z
m1338 -98 c3 3 2 0 -3 -6 -10 -12 -31 -4 -31 13 0 7 4 7 13 -1 8 -6 17 -9 21
-6z m292 -81 c-3 -8 0 -11 10 -7 7 3 14 1 14 -4 0 -5 -8 -9 -19 -10 -13 -1
-18 5 -18 23 0 13 4 21 9 18 5 -3 7 -12 4 -20z m-3176 -11 c0 -7 -6 -13 -13
-13 -8 0 -14 6 -14 13 0 8 6 14 14 14 7 0 13 -6 13 -14z m1456 -36 c1 -9 -2
-15 -7 -11 -5 3 -6 10 -3 16 5 8 1 9 -10 5 -11 -4 -15 -3 -11 4 10 14 28 6 31
-14z m1769 -46 c3 -5 2 -12 -3 -15 -5 -3 -9 1 -9 9 0 17 3 19 12 6z m-532 -45
c4 -10 1 -13 -8 -9 -8 3 -12 9 -9 14 7 12 11 11 17 -5z m-2833 -50 c0 -2 -7
-7 -16 -10 -8 -3 -12 -2 -9 4 6 10 25 14 25 6z m3458 -101 c-3 -3 -9 2 -12 12
-6 14 -5 15 5 6 7 -7 10 -15 7 -18z m59 -86 c1 -12 -3 -16 -13 -12 -18 7 -19
30 -1 30 7 0 14 -8 14 -18z m-1090 -268 c0 -11 -8 -18 -17 -16 -8 1 -13 6 -10
11 3 5 8 8 13 7 4 -2 7 2 7 7 0 6 2 10 4 10 3 0 4 -8 3 -19z m-2835 -53 c-12
-12 -35 -1 -27 12 3 5 13 6 21 3 10 -4 12 -9 6 -15z m2791 9 c4 3 7 1 7 -5 0
-6 -8 -10 -18 -9 -10 0 -19 7 -19 14 0 9 4 10 12 3 7 -5 15 -7 18 -3z m-1018
-45 c4 -20 -16 -25 -32 -7 -5 4 -2 5 6 0 11 -6 13 -4 8 7 -3 9 -3 19 0 22 8 8
13 3 18 -22z m2417 -147 c0 -5 -5 -10 -11 -12 -8 -1 -7 0 0 4 8 4 7 8 -2 15
-11 8 -11 9 -1 6 8 -2 14 -8 14 -13z m-4970 -762 c-6 -3 -10 -9 -6 -14 3 -5 1
-9 -4 -9 -21 0 -19 26 2 27 11 0 15 -1 8 -4z m5378 -8 c7 -9 8 -15 2 -15 -5 0
-12 7 -16 15 -3 8 -4 15 -2 15 2 0 9 -7 16 -15z m-5423 -54 c0 -11 -7 -17 -14
-14 -9 4 -9 8 0 19 16 17 16 17 14 -5z m5703 -461 c0 -5 -5 -10 -11 -10 -5 0
-7 5 -4 10 3 6 8 10 11 10 2 0 4 -4 4 -10z m-5932 -175 c-3 -3 -9 2 -12 12 -6
14 -5 15 5 6 7 -7 10 -15 7 -18z m332 -215 c0 -5 -2 -10 -4 -10 -3 0 -8 5 -11
10 -3 6 -1 10 4 10 6 0 11 -4 11 -10z m309 -226 c4 3 8 -1 8 -9 0 -8 -4 -15
-7 -15 -13 0 -30 27 -23 34 4 4 9 2 11 -3 2 -6 7 -9 11 -7z m3374 -9 c-3 -8
-10 -15 -15 -15 -7 0 -6 5 1 13 6 8 7 18 3 22 -4 5 -2 5 5 1 7 -4 10 -13 6
-21z m-1910 0 c-3 -9 -8 -14 -10 -11 -3 3 -2 9 2 15 9 16 15 13 8 -4z m-1382
-39 c5 3 9 1 9 -4 0 -21 -26 -19 -27 2 0 11 1 15 4 8 3 -6 9 -10 14 -6z m4756
-141 c0 -8 -4 -15 -8 -15 -4 0 -9 7 -13 15 -3 9 0 15 8 15 7 0 13 -7 13 -15z
m-2962 -95 c-3 -5 -12 -10 -18 -10 -7 0 -6 4 3 10 19 12 23 12 15 0z m-611
-58 c3 -5 -1 -9 -9 -9 -8 0 -12 4 -9 9 3 4 7 8 9 8 2 0 6 -4 9 -8z m-720 -42
c-6 -6 -10 -3 -10 10 0 13 4 16 10 10 7 -7 7 -13 0 -20z m860 -128 c3 -5 -1
-9 -9 -9 -8 0 -12 4 -9 9 3 4 7 8 9 8 2 0 6 -4 9 -8z m1756 -7 c0 -2 -6 -5
-13 -8 -8 -3 -14 1 -14 8 0 7 6 11 14 8 7 -3 13 -6 13 -8z m-876 -33 c3 -5 -1
-9 -9 -9 -8 0 -12 4 -9 9 3 4 7 8 9 8 2 0 6 -4 9 -8z m42 -47 c14 -13 13 -15
-4 -15 -10 0 -19 7 -19 15 0 8 2 15 4 15 3 0 11 -7 19 -15z m1914 -35 c0 -5
-5 -10 -11 -10 -5 0 -7 5 -4 10 3 6 8 10 11 10 2 0 4 -4 4 -10z m-3280 -14 c0
-2 -7 -7 -16 -10 -8 -3 -12 -2 -9 4 6 10 25 14 25 6z m630 -100 c0 -2 -7 -7
-16 -10 -8 -3 -12 -2 -9 4 6 10 25 14 25 6z m2415 -88 c-19 -11 -30 -5 -21 11
4 6 14 7 22 4 15 -5 14 -7 -1 -15z m-2590 -146 c-3 -3 -11 0 -18 7 -9 10 -8
11 6 5 10 -3 15 -9 12 -12z m1245 -92 c0 -5 -7 -10 -16 -10 -8 0 -12 5 -9 10
3 6 10 10 16 10 5 0 9 -4 9 -10z m-973 -82 c-3 -8 -6 -5 -6 6 -1 11 2 17 5 13
3 -3 4 -12 1 -19z m53 -36 c0 -13 -12 -22 -22 -16 -10 6 -1 24 13 24 5 0 9 -4
9 -8z m1627 -143 c2 -17 -1 -18 -12 -9 -8 7 -12 16 -9 21 9 16 20 10 21 -12z
m-952 2 c3 -5 2 -12 -3 -15 -5 -3 -9 1 -9 9 0 17 3 19 12 6z m-400 -41 c3 -5
1 -10 -4 -10 -6 0 -11 5 -11 10 0 6 2 10 4 10 3 0 8 -4 11 -10z m269 -114 c-3
-9 -10 -16 -15 -16 -6 0 -5 9 1 21 13 24 24 20 14 -5z m539 -262 c-4 -12 -8
-13 -14 -3 -9 15 -2 32 11 24 5 -3 6 -13 3 -21z m-772 -17 c-10 -9 -11 -8 -5
6 3 10 9 15 12 12 3 -3 0 -11 -7 -18z m584 -106 c3 -5 2 -12 -3 -15 -5 -3 -9
1 -9 9 0 17 3 19 12 6z m-718 -19 c0 -10 -6 -19 -13 -19 -9 0 -11 13 -5 35 1
1 5 2 10 2 6 0 9 -8 8 -18z m667 -37 c-4 -8 -8 -15 -10 -15 -2 0 -4 7 -4 15 0
8 4 15 10 15 5 0 7 -7 4 -15z m-124 -85 c0 -5 -2 -10 -4 -10 -3 0 -8 5 -11 10
-3 6 -1 10 4 10 6 0 11 -4 11 -10z m-1141 -558 c7 -14 6 -19 -3 -19 -6 0 -13
9 -13 19 -1 10 0 18 2 18 2 0 9 -8 14 -18z m-99 -402 c0 -5 -5 -10 -11 -10 -5
0 -7 5 -4 10 3 6 8 10 11 10 2 0 4 -4 4 -10z m-457 -376 c-4 -12 -8 -13 -14
-3 -9 15 -2 32 11 24 5 -3 6 -13 3 -21z"/>
<path d="M5490 9108 c0 -4 4 -8 9 -8 6 0 12 4 15 8 3 5 -1 9 -9 9 -8 0 -15 -4
-15 -9z"/>
<path d="M5450 9070 c0 -5 5 -10 11 -10 5 0 7 5 4 10 -3 6 -8 10 -11 10 -2 0
-4 -4 -4 -10z"/>
<path d="M5266 8828 c3 -5 10 -6 15 -3 13 9 11 12 -6 12 -8 0 -12 -4 -9 -9z"/>
<path d="M5546 8684 c-9 -24 -8 -25 13 -12 11 7 17 16 15 20 -8 13 -21 9 -28
-8z"/>
<path d="M5515 8510 c3 -5 8 -10 11 -10 2 0 4 5 4 10 0 6 -5 10 -11 10 -5 0
-7 -4 -4 -10z"/>
<path d="M4857 8319 c7 -7 15 -10 18 -7 3 3 -2 9 -12 12 -14 6 -15 5 -6 -5z"/>
<path d="M4633 8055 c0 -8 4 -12 9 -9 5 3 6 10 3 15 -9 13 -12 11 -12 -6z"/>
<path d="M4309 7658 c-8 -27 -5 -36 9 -30 10 4 12 7 4 10 -7 2 -10 8 -6 13 3
5 3 9 0 9 -3 0 -6 -1 -7 -2z"/>
<path d="M5134 7453 c2 -10 6 -17 10 -16 15 3 16 11 2 22 -12 10 -14 9 -12 -6z"/>
<path d="M3666 6868 c3 -4 9 -8 15 -8 5 0 9 4 9 8 0 5 -7 9 -15 9 -8 0 -12 -4
-9 -9z"/>
<path d="M3255 6370 c-3 -5 -1 -10 4 -10 6 0 11 5 11 10 0 6 -2 10 -4 10 -3 0
-8 -4 -11 -10z"/>
<path d="M5956 6225 c4 -8 8 -15 10 -15 2 0 4 7 4 15 0 8 -4 15 -10 15 -5 0
-7 -7 -4 -15z"/>
<path d="M5763 5998 c-2 -16 1 -17 13 -8 18 15 18 27 1 27 -7 0 -14 -9 -14
-19z"/>
<path d="M6737 5995 c3 -8 9 -12 14 -9 12 7 11 11 -5 17 -10 4 -13 1 -9 -8z"/>
<path d="M4642 5948 c-17 -17 -15 -28 5 -28 9 0 13 3 10 7 -4 3 -2 12 4 20 14
16 -3 17 -19 1z"/>
<path d="M6839 5817 c6 -8 7 -18 3 -22 -4 -5 -1 -5 6 -1 10 6 10 11 1 22 -6 8
-14 14 -16 14 -3 0 0 -6 6 -13z"/>
<path d="M2713 5693 c-20 -7 -15 -33 5 -32 12 0 13 2 3 6 -11 4 -11 7 0 14 16
9 10 18 -8 12z"/>
<path d="M2516 5451 c-3 -5 1 -11 9 -14 9 -4 12 -1 8 9 -6 16 -10 17 -17 5z"/>
<path d="M2337 5234 c-3 -5 1 -15 9 -22 16 -14 18 -5 5 17 -5 7 -11 9 -14 5z"/>
<path d="M4457 5226 c-4 -10 -3 -15 3 -11 6 3 10 1 10 -6 0 -7 3 -10 6 -6 3 3
2 13 -4 22 -8 16 -9 16 -15 1z"/>
<path d="M2245 5129 c-4 -6 -5 -12 -2 -15 2 -3 7 2 10 11 7 17 1 20 -8 4z"/>
<path d="M5030 5136 c0 -2 7 -7 16 -10 8 -3 12 -2 9 4 -6 10 -25 14 -25 6z"/>
<path d="M4723 4995 c0 -7 7 -11 15 -7 11 4 13 1 7 -8 -5 -9 -4 -11 3 -6 16
10 15 14 -6 25 -14 7 -19 6 -19 -4z"/>
<path d="M2060 4905 c0 -2 6 -8 13 -14 10 -8 14 -7 14 2 0 8 -6 14 -14 14 -7
0 -13 -1 -13 -2z"/>
<path d="M1870 4670 c0 -5 5 -10 11 -10 5 0 7 5 4 10 -3 6 -8 10 -11 10 -2 0
-4 -4 -4 -10z"/>
<path d="M7750 4076 c7 -7 13 -7 20 0 6 6 3 10 -10 10 -13 0 -16 -4 -10 -10z"/>
<path d="M2075 3791 c-3 -5 -2 -12 3 -15 5 -3 9 1 9 9 0 17 -3 19 -12 6z"/>
<path d="M2146 3745 c7 -17 20 -20 28 -6 3 5 -1 12 -10 15 -22 9 -24 8 -18 -9z"/>
<path d="M5630 3710 c0 -5 5 -10 11 -10 5 0 7 5 4 10 -3 6 -8 10 -11 10 -2 0
-4 -4 -4 -10z"/>
<path d="M3671 3656 c-8 -10 -9 -16 -1 -21 6 -3 8 -10 5 -15 -3 -5 0 -12 6
-16 8 -4 7 -9 -2 -15 -12 -7 -12 -9 0 -9 10 0 11 -3 2 -14 -9 -10 -8 -15 3
-19 11 -5 14 5 12 49 -1 50 0 53 19 48 24 -8 19 -1 -11 14 -17 9 -24 8 -33 -2z
m16 -11 c0 -8 -4 -12 -9 -9 -5 3 -6 10 -3 15 9 13 12 11 12 -6z"/>
<path d="M5425 3519 c-4 -6 -5 -12 -2 -15 2 -3 7 2 10 11 7 17 1 20 -8 4z"/>
<path d="M3680 3511 c0 -6 4 -13 10 -16 6 -3 7 1 4 9 -7 18 -14 21 -14 7z"/>
<path d="M7245 3471 c-3 -5 -1 -12 4 -15 5 -3 11 1 15 9 6 16 -9 21 -19 6z"/>
<path d="M5769 3458 c-6 -15 -4 -46 3 -42 4 3 6 9 3 14 -3 4 0 10 7 12 9 3 9
6 0 12 -7 4 -13 6 -13 4z"/>
<path d="M4070 3425 c0 -8 7 -15 16 -15 14 0 14 3 4 15 -7 8 -14 15 -16 15 -2
0 -4 -7 -4 -15z"/>
<path d="M4129 3398 c-7 -23 -4 -35 7 -35 9 0 11 4 4 12 -5 7 -7 15 -3 18 3 4
3 7 0 7 -4 0 -7 -1 -8 -2z"/>
<path d="M3626 3341 c-3 -5 1 -14 9 -21 12 -10 15 -10 15 3 0 19 -16 31 -24
18z"/>
<path d="M4254 3299 c-3 -6 -1 -16 5 -22 9 -9 10 -7 5 7 -6 15 -4 17 6 11 9
-5 11 -4 6 3 -9 15 -13 15 -22 1z"/>
<path d="M4990 3206 c0 -2 8 -10 18 -17 15 -13 16 -12 3 4 -13 16 -21 21 -21
13z"/>
<path d="M6919 3183 c-13 -16 -12 -17 4 -4 16 13 21 21 13 21 -2 0 -10 -8 -17
-17z"/>
<path d="M3060 3115 c0 -7 30 -13 34 -7 3 4 -4 9 -15 9 -10 1 -19 0 -19 -2z"/>
<path d="M4829 3053 c-13 -16 -12 -17 4 -4 16 13 21 21 13 21 -2 0 -10 -8 -17
-17z"/>
<path d="M5400 3025 c-7 -9 -8 -15 -2 -15 5 0 12 7 16 15 3 8 4 15 2 15 -2 0
-9 -7 -16 -15z"/>
<path d="M4786 3013 c-6 -14 -5 -15 5 -6 7 7 10 15 7 18 -3 3 -9 -2 -12 -12z"/>
<path d="M5310 2930 c0 -5 5 -10 10 -10 6 0 10 5 10 10 0 6 -4 10 -10 10 -5 0
-10 -4 -10 -10z"/>
<path d="M6550 2920 c0 -5 7 -7 15 -4 8 4 15 8 15 10 0 2 -7 4 -15 4 -8 0 -15
-4 -15 -10z"/>
<path d="M3999 2847 c6 -8 7 -18 3 -22 -4 -5 -1 -5 6 -1 10 6 10 11 1 22 -6 8
-14 14 -16 14 -3 0 0 -6 6 -13z"/>
<path d="M6417 2827 c-3 -7 3 -13 12 -13 10 0 18 6 18 13 0 7 -6 13 -13 13 -6
0 -14 -6 -17 -13z"/>
<path d="M3526 2787 c3 -10 9 -15 12 -12 3 3 0 11 -7 18 -10 9 -11 8 -5 -6z"/>
<path d="M3668 2703 c7 -3 16 -2 19 1 4 3 -2 6 -13 5 -11 0 -14 -3 -6 -6z"/>
<path d="M6192 2644 c10 -10 20 -16 22 -13 3 3 -5 11 -17 18 -21 13 -21 12 -5
-5z"/>
<path d="M5035 2610 c-3 -5 -1 -10 4 -10 6 0 11 5 11 10 0 6 -2 10 -4 10 -3 0
-8 -4 -11 -10z"/>
<path d="M3806 2596 c10 -8 21 -12 24 -10 5 6 -21 24 -34 24 -6 0 -1 -6 10
-14z"/>
<path d="M4316 2432 c-3 -5 1 -9 9 -9 8 0 12 4 9 9 -3 4 -7 8 -9 8 -2 0 -6 -4
-9 -8z"/>
<path d="M4275 2270 c-3 -5 -1 -10 4 -10 6 0 11 5 11 10 0 6 -2 10 -4 10 -3 0
-8 -4 -11 -10z"/>
<path d="M4450 2249 c0 -5 5 -7 10 -4 6 3 10 8 10 11 0 2 -4 4 -10 4 -5 0 -10
-5 -10 -11z"/>
<path d="M4510 2210 c0 -5 5 -10 11 -10 5 0 7 5 4 10 -3 6 -8 10 -11 10 -2 0
-4 -4 -4 -10z"/>
<path d="M4490 2168 c-21 -18 -22 -20 -5 -15 l20 7 -20 -16 c-20 -16 -20 -16
2 -11 12 3 24 2 26 -2 2 -3 2 0 1 7 -2 6 2 12 9 12 8 0 8 3 -2 9 -7 5 -10 14
-7 20 10 16 4 13 -24 -11z"/>
<path d="M5360 2016 c0 -2 7 -9 15 -16 9 -7 15 -8 15 -2 0 5 -7 12 -15 16 -8
3 -15 4 -15 2z"/>
<path d="M4305 1791 c-6 -11 9 -23 19 -14 9 9 7 23 -3 23 -6 0 -12 -4 -16 -9z"/>
<path d="M4215 1700 c-3 -6 1 -7 9 -4 18 7 21 14 7 14 -6 0 -13 -4 -16 -10z"/>
<path d="M4735 1510 c-3 -5 -1 -10 4 -10 6 0 11 5 11 10 0 6 -2 10 -4 10 -3 0
-8 -4 -11 -10z"/>
<path d="M3894 1339 c-3 -6 -2 -15 4 -21 6 -6 12 -6 17 3 6 8 4 10 -5 4 -10
-6 -12 -4 -7 8 7 19 2 23 -9 6z"/>
<path d="M4490 1309 c0 -5 5 -7 10 -4 6 3 10 8 10 11 0 2 -4 4 -10 4 -5 0 -10
-5 -10 -11z"/>
<path d="M3730 719 c0 -5 5 -7 10 -4 6 3 10 8 10 11 0 2 -4 4 -10 4 -5 0 -10
-5 -10 -11z"/>
<path d="M3254 605 c3 -8 0 -15 -6 -15 -6 0 -9 -2 -6 -5 3 -3 12 -3 21 1 16 6
12 34 -5 34 -6 0 -8 -7 -4 -15z"/>
<path d="M3536 592 c-3 -6 -1 -14 5 -17 15 -10 25 3 12 16 -7 7 -13 7 -17 1z"/>
<path d="M3493 547 c0 -8 6 -14 14 -14 9 0 10 4 2 14 -6 7 -12 13 -14 13 -1 0
-2 -6 -2 -13z"/>
<path d="M3150 510 c0 -5 5 -10 10 -10 6 0 10 5 10 10 0 6 -4 10 -10 10 -5 0
-10 -4 -10 -10z"/>
<path d="M2834 115 c-4 -8 -10 -15 -16 -15 -5 0 -6 6 -2 13 5 8 2 8 -9 -2 -21
-17 -22 -35 -1 -27 10 4 24 -3 36 -16 11 -13 17 -18 14 -12 -3 7 2 11 11 10
22 -1 24 23 5 47 -18 21 -31 22 -38 2z"/>
<path d="M2799 73 c-26 -6 -12 -55 15 -51 15 2 20 9 18 23 -5 25 -13 32 -33
28z"/>
</g>
</svg>
