<svg xmlns="http://www.w3.org/2000/svg" xmlns:xlink="http://www.w3.org/1999/xlink" xmlns:serif="http://www.serif.com/" viewBox="0 0 32 40" version="1.1" xml:space="preserve" style="" x="0px" y="0px" fill-rule="evenodd" clip-rule="evenodd" stroke-linejoin="round" stroke-miterlimit="2"><g transform="matrix(1,0,0,1,-336,0)"><path fill="white" d="M350.586,16L341.293,25.293C340.903,25.683 340.903,26.317 341.293,26.707C341.683,27.097 342.317,27.097 342.707,26.707L352,17.414L361.293,26.707C361.683,27.097 362.317,27.097 362.707,26.707C363.097,26.317 363.097,25.683 362.707,25.293L353.414,16L362.707,6.707C363.097,6.317 363.097,5.683 362.707,5.293C362.317,4.903 361.683,4.903 361.293,5.293L352,14.586L342.707,5.293C342.317,4.903 341.683,4.903 341.293,5.293C340.903,5.683 340.903,6.317 341.293,6.707L350.586,16Z"/></g></svg>