<svg width="1385" height="710" viewBox="0 0 1385 710" fill="none" xmlns="http://www.w3.org/2000/svg">
<path d="M1224.04 209.306C1224 207.585 1224.34 205.876 1225.04 204.306C1225.17 203.97 1225.38 203.673 1225.65 203.446C1226.18 202.976 1226.97 203.086 1227.45 202.706C1228.08 202.055 1228.45 201.205 1228.5 200.306C1228.5 199.446 1227.66 198.606 1227.92 197.726C1228.07 197.236 1228.45 197.146 1228.71 196.726C1229.56 195.366 1231.06 193.516 1229.86 191.966C1229.42 191.539 1228.95 191.139 1228.45 190.766C1228 190.181 1227.5 189.626 1226.97 189.106C1225.55 188.243 1224.16 187.309 1222.83 186.306C1221.83 185.306 1221.01 184.166 1219.92 183.216C1218.94 182.368 1218.07 181.389 1217.35 180.306C1216 178.246 1215.27 178.386 1212.98 178.586C1212.23 178.604 1211.49 178.461 1210.8 178.168C1210.11 177.875 1209.49 177.438 1208.98 176.886C1206.31 174.426 1204.22 172.006 1200.5 171.186C1197.97 170.626 1194.39 171.416 1192.03 172.436C1190.22 173.294 1188.45 174.249 1186.74 175.296C1184.99 176.296 1183.33 177.076 1182.19 178.826C1180.28 181.726 1180.54 184.976 1180.5 188.266C1180.5 190.646 1181.5 192.946 1180.93 195.376C1180.36 197.806 1178.93 198.106 1176.93 198.956C1175.99 199.369 1175.11 199.926 1174.33 200.606C1173.75 201.313 1173.23 202.065 1172.77 202.856C1172.31 203.539 1171.72 204.132 1171.04 204.606C1170.04 205.146 1168.39 204.486 1167.36 204.136C1165.6 203.359 1163.72 202.908 1161.79 202.806C1159.99 202.832 1158.21 203.277 1156.6 204.106C1154.26 205.024 1152.06 206.27 1150.07 207.806C1148.64 209.016 1147.43 210.464 1146.48 212.086C1145.48 213.816 1144.74 215.786 1143.58 217.396C1142.72 218.588 1141.6 219.568 1140.31 220.261C1139.01 220.954 1137.57 221.342 1136.1 221.396C1134.1 221.334 1132.14 220.81 1130.37 219.866C1129.15 219.142 1127.71 218.856 1126.3 219.056C1123.87 219.476 1121.52 219.636 1119.08 219.926C1114.47 220.476 1110.37 222.546 1105.87 223.536C1102.25 224.326 1098.65 224.886 1094.98 225.406C1092.26 225.897 1089.61 226.73 1087.1 227.886C1084.21 229.123 1081.2 230.032 1078.1 230.596C1072.65 231.596 1067.1 232.346 1061.68 233.326C1058.3 233.936 1054.9 234.426 1051.59 235.326C1047.92 236.171 1044.2 236.769 1040.44 237.116C1035.24 237.836 1030.25 239.626 1025.03 240.266C1018.49 241.056 1011.7 238.956 1005.28 238.116C999.71 237.322 994.092 236.891 988.463 236.826C986.713 236.826 984.943 236.736 983.203 236.826C981.203 236.966 979.353 237.616 977.353 237.496C973.253 237.256 969.113 237.006 965.033 236.496C964.033 236.376 958.523 235.906 959.033 237.986C959.323 239.166 962.533 239.726 963.483 239.986C965.939 240.751 968.445 241.342 970.983 241.756C975.533 242.436 979.983 241.756 984.533 241.756C988.863 241.756 992.813 242.906 997.073 243.406C1003.77 244.186 1010.33 243.406 1017.02 243.216C1020.59 243.106 1024.11 243.706 1027.67 243.786C1030.95 243.856 1034.24 243.786 1037.52 243.786C1040.43 243.649 1043.33 243.683 1046.23 243.886C1047.02 243.986 1049.81 244.136 1050.04 245.276C1050.23 246.276 1047.82 246.856 1047.24 247.056C1044.55 247.976 1041.74 247.696 1038.96 248.056C1035.38 248.412 1031.88 249.312 1028.57 250.726C1026.98 251.446 1023.38 252.156 1022.57 253.806C1023.02 255.526 1026.91 254.806 1027.98 254.806C1032.26 254.806 1036.51 254.946 1040.77 254.516C1047.46 253.856 1054.15 253.516 1060.86 253.176C1067.27 252.846 1073.66 252.176 1080.06 251.896C1094.57 251.126 1109.3 252.996 1123.75 251.056C1131.11 250.056 1137.58 246.576 1144.75 245.056C1149.81 244.056 1154.61 244.296 1159.75 244.786C1163.61 245.002 1167.44 245.419 1171.25 246.036C1174.49 246.629 1177.79 246.884 1181.08 246.796C1184.08 246.796 1187.08 246.366 1190.14 246.266C1192.59 246.186 1195.59 245.836 1197.82 247.036C1198.48 247.312 1199.02 247.823 1199.32 248.469C1199.63 249.115 1199.68 249.852 1199.47 250.536C1199.39 251.323 1199.04 252.056 1198.48 252.615C1197.92 253.174 1197.18 253.523 1196.39 253.606C1194.45 253.506 1192.51 253.273 1190.59 252.906C1189.38 252.776 1188.19 252.676 1186.98 252.516C1186.29 252.426 1185.31 252.086 1184.71 252.636C1185.36 253.289 1186.1 253.851 1186.9 254.306C1189.24 255.522 1191.8 256.26 1194.42 256.476C1198.63 257.036 1202.76 256.316 1206.96 255.946C1209.65 255.706 1212.84 255.046 1215.56 255.376C1217.09 255.566 1218.61 255.956 1220.13 256.196C1223.76 256.911 1227.44 257.296 1231.13 257.346C1235.3 257.246 1239.5 256.646 1243.65 256.196C1248.32 255.676 1253.03 255.516 1257.65 254.836C1263.54 253.976 1269.31 252.286 1275.22 251.566C1280.74 251.021 1286.3 251.021 1291.81 251.566C1297.91 252.053 1304.04 251.717 1310.04 250.566C1313.01 249.829 1316.01 249.274 1319.04 248.906C1321.84 248.726 1324.66 248.836 1327.46 248.906C1332.16 248.936 1336.85 248.514 1341.46 247.646C1346.04 246.806 1350.7 246.646 1355.33 246.146C1359.26 245.662 1363.21 245.381 1367.16 245.306C1370.86 245.479 1374.56 245.403 1378.24 245.076C1379.68 244.877 1381.14 244.794 1382.59 244.826C1383.24 244.826 1384.59 245.186 1384.87 244.336C1384.58 243.766 1383.54 243.336 1382.99 243.056C1381.06 241.975 1378.95 241.218 1376.77 240.816C1374.1 240.186 1371.39 239.696 1368.77 239.026C1366.15 238.356 1363.77 237.456 1361.2 237.026C1359.2 236.716 1355.9 237.526 1354.33 236.026C1353.65 235.225 1353.05 234.354 1352.55 233.426C1351.81 232.316 1350.76 231.786 1349.99 230.816C1349.22 229.846 1349.35 228.386 1348.99 227.256C1348.68 226.391 1348.05 225.677 1347.23 225.256C1346.1 224.496 1344.87 223.946 1343.7 223.256C1342.6 222.685 1341.41 222.309 1340.17 222.146C1338.61 221.766 1337.17 220.996 1335.6 220.766C1333.5 220.466 1328.85 219.916 1327.91 217.556C1327.46 216.426 1328.23 214.876 1328.46 213.686C1328.94 211.903 1329.14 210.059 1329.07 208.216C1328.77 205.876 1327.49 203.916 1326.47 201.906C1325.58 200.156 1324.47 198.566 1323.68 196.746C1323.03 195.189 1322.22 193.702 1321.27 192.306C1320.57 191.246 1319.6 190.246 1318.97 189.146C1318.06 187.576 1318.08 185.656 1316.97 184.146C1315.86 182.636 1313.97 181.706 1312.42 180.846C1309.83 179.406 1307.03 178.086 1304.35 176.846C1300.1 174.846 1295.69 172.946 1291 174.396C1288.18 175.359 1285.58 176.886 1283.36 178.886C1281.81 180.316 1281.09 182.066 1280.01 183.886C1278.64 186.011 1277.14 188.045 1275.5 189.976C1274.74 190.916 1273.2 193.526 1271.98 193.776C1270.18 194.136 1269.21 191.486 1267.51 191.136C1266.84 191.106 1266.17 191.166 1265.51 191.316C1264.77 191.316 1264 191.316 1263.26 191.316C1262.26 191.316 1262.01 191.226 1261.51 192.316C1261.03 193.267 1260.66 194.275 1260.41 195.316C1259.53 195.116 1258.82 193.756 1258.23 193.086C1256.85 191.536 1255.53 191.406 1253.65 190.846C1250.18 189.846 1246.15 188.946 1242.97 191.026C1240.89 192.395 1239.13 194.196 1237.81 196.306C1236.81 197.836 1237.09 199.006 1237.03 200.726C1236.81 202.099 1236.42 203.442 1235.88 204.726C1235.63 205.556 1235.1 207.476 1234.39 208.126C1233.39 209.026 1231.21 209.006 1229.99 209.716C1229.75 209.856 1229.56 209.846 1229.35 210.066C1229.14 210.286 1229.14 210.776 1228.96 210.926C1228.45 211.366 1227.75 211.206 1226.96 211.216C1224.63 211.306 1224.05 210.486 1224.04 209.306Z" fill="url(#paint0_linear_341_709)"/>
<g filter="url(#filter0_d_341_709)">
<path d="M1175.51 182.009C1254.85 226.431 1297.03 133.869 1273.02 101.771C1310.87 137.366 1289.89 175.254 1281.97 187.186C1280.46 189.459 1278.67 191.582 1276.69 193.457C1226.63 240.827 1177.65 187.277 1175.51 182.009Z" fill="white"/>
</g>
<path opacity="0.5" d="M895.57 214.264C884.38 215.324 883.57 216.514 882.88 234.364C882.875 234.377 882.866 234.388 882.854 234.396C882.843 234.404 882.829 234.408 882.815 234.408C882.801 234.408 882.787 234.404 882.776 234.396C882.764 234.388 882.755 234.377 882.75 234.364C882.1 216.514 881.25 215.364 870.06 214.264C870.044 214.264 870.029 214.258 870.018 214.246C870.006 214.235 870 214.22 870 214.204C870 214.188 870.006 214.173 870.018 214.162C870.029 214.15 870.044 214.144 870.06 214.144C881.25 213.074 882.06 211.884 882.75 194.044C882.755 194.031 882.764 194.02 882.776 194.012C882.787 194.004 882.801 194 882.815 194C882.829 194 882.843 194.004 882.854 194.012C882.866 194.02 882.875 194.031 882.88 194.044C883.53 211.884 884.38 213.044 895.57 214.144C895.586 214.144 895.601 214.15 895.612 214.162C895.624 214.173 895.63 214.188 895.63 214.204C895.63 214.22 895.624 214.235 895.612 214.246C895.601 214.258 895.586 214.264 895.57 214.264Z" fill="white"/>
<path opacity="0.5" d="M1007.57 352.264C996.38 353.324 995.57 354.514 994.88 372.364C994.875 372.377 994.866 372.388 994.854 372.396C994.843 372.404 994.829 372.408 994.815 372.408C994.801 372.408 994.787 372.404 994.776 372.396C994.764 372.388 994.755 372.377 994.75 372.364C994.1 354.514 993.25 353.364 982.06 352.264C982.044 352.264 982.029 352.258 982.018 352.246C982.006 352.235 982 352.22 982 352.204C982 352.188 982.006 352.173 982.018 352.162C982.029 352.15 982.044 352.144 982.06 352.144C993.25 351.074 994.06 349.884 994.75 332.044C994.755 332.031 994.764 332.02 994.776 332.012C994.787 332.004 994.801 332 994.815 332C994.829 332 994.843 332.004 994.854 332.012C994.866 332.02 994.875 332.031 994.88 332.044C995.53 349.884 996.38 351.044 1007.57 352.144C1007.59 352.144 1007.6 352.15 1007.61 352.162C1007.62 352.173 1007.63 352.188 1007.63 352.204C1007.63 352.22 1007.62 352.235 1007.61 352.246C1007.6 352.258 1007.59 352.264 1007.57 352.264Z" fill="white"/>
<path opacity="0.5" d="M848.57 455.264C837.38 456.324 836.57 457.514 835.88 475.364C835.875 475.377 835.866 475.388 835.854 475.396C835.843 475.404 835.829 475.408 835.815 475.408C835.801 475.408 835.787 475.404 835.776 475.396C835.764 475.388 835.755 475.377 835.75 475.364C835.1 457.514 834.25 456.364 823.06 455.264C823.044 455.264 823.029 455.258 823.018 455.246C823.006 455.235 823 455.22 823 455.204C823 455.188 823.006 455.173 823.018 455.162C823.029 455.15 823.044 455.144 823.06 455.144C834.25 454.074 835.06 452.884 835.75 435.044C835.755 435.031 835.764 435.02 835.776 435.012C835.787 435.004 835.801 435 835.815 435C835.829 435 835.843 435.004 835.854 435.012C835.866 435.02 835.875 435.031 835.88 435.044C836.53 452.884 837.38 454.044 848.57 455.144C848.586 455.144 848.601 455.15 848.612 455.162C848.624 455.173 848.63 455.188 848.63 455.204C848.63 455.22 848.624 455.235 848.612 455.246C848.601 455.258 848.586 455.264 848.57 455.264Z" fill="white"/>
<path d="M503.57 542.264C492.38 543.324 491.57 544.514 490.88 562.364C490.875 562.377 490.866 562.388 490.854 562.396C490.843 562.404 490.829 562.408 490.815 562.408C490.801 562.408 490.787 562.404 490.776 562.396C490.764 562.388 490.755 562.377 490.75 562.364C490.1 544.514 489.25 543.364 478.06 542.264C478.044 542.264 478.029 542.258 478.018 542.246C478.006 542.235 478 542.22 478 542.204C478 542.188 478.006 542.173 478.018 542.162C478.029 542.15 478.044 542.144 478.06 542.144C489.25 541.074 490.06 539.884 490.75 522.044C490.755 522.031 490.764 522.02 490.776 522.012C490.787 522.004 490.801 522 490.815 522C490.829 522 490.843 522.004 490.854 522.012C490.866 522.02 490.875 522.031 490.88 522.044C491.53 539.884 492.38 541.044 503.57 542.144C503.586 542.144 503.601 542.15 503.612 542.162C503.624 542.173 503.63 542.188 503.63 542.204C503.63 542.22 503.624 542.235 503.612 542.246C503.601 542.258 503.586 542.264 503.57 542.264Z" fill="white" fill-opacity="0.2"/>
<path d="M377.57 194.264C366.38 195.324 365.57 196.514 364.88 214.364C364.875 214.377 364.866 214.388 364.854 214.396C364.843 214.404 364.829 214.408 364.815 214.408C364.801 214.408 364.787 214.404 364.776 214.396C364.764 214.388 364.755 214.377 364.75 214.364C364.1 196.514 363.25 195.364 352.06 194.264C352.044 194.264 352.029 194.258 352.018 194.246C352.006 194.235 352 194.22 352 194.204C352 194.188 352.006 194.173 352.018 194.162C352.029 194.15 352.044 194.144 352.06 194.144C363.25 193.074 364.06 191.884 364.75 174.044C364.755 174.031 364.764 174.02 364.776 174.012C364.787 174.004 364.801 174 364.815 174C364.829 174 364.843 174.004 364.854 174.012C364.866 174.02 364.875 174.031 364.88 174.044C365.53 191.884 366.38 193.044 377.57 194.144C377.586 194.144 377.601 194.15 377.612 194.162C377.624 194.173 377.63 194.188 377.63 194.204C377.63 194.22 377.624 194.235 377.612 194.246C377.601 194.258 377.586 194.264 377.57 194.264Z" fill="white" fill-opacity="0.5"/>
<path d="M158.57 542.264C147.38 543.324 146.57 544.514 145.88 562.364C145.875 562.377 145.866 562.388 145.854 562.396C145.843 562.404 145.829 562.408 145.815 562.408C145.801 562.408 145.787 562.404 145.776 562.396C145.764 562.388 145.755 562.377 145.75 562.364C145.1 544.514 144.25 543.364 133.06 542.264C133.044 542.264 133.029 542.258 133.018 542.246C133.006 542.235 133 542.22 133 542.204C133 542.188 133.006 542.173 133.018 542.162C133.029 542.15 133.044 542.144 133.06 542.144C144.25 541.074 145.06 539.884 145.75 522.044C145.755 522.031 145.764 522.02 145.776 522.012C145.787 522.004 145.801 522 145.815 522C145.829 522 145.843 522.004 145.854 522.012C145.866 522.02 145.875 522.031 145.88 522.044C146.53 539.884 147.38 541.044 158.57 542.144C158.586 542.144 158.601 542.15 158.612 542.162C158.624 542.173 158.63 542.188 158.63 542.204C158.63 542.22 158.624 542.235 158.612 542.246C158.601 542.258 158.586 542.264 158.57 542.264Z" fill="white" fill-opacity="0.2"/>
<path d="M273.57 689.264C262.38 690.324 261.57 691.514 260.88 709.364C260.875 709.377 260.866 709.388 260.854 709.396C260.843 709.404 260.829 709.408 260.815 709.408C260.801 709.408 260.787 709.404 260.776 709.396C260.764 709.388 260.755 709.377 260.75 709.364C260.1 691.514 259.25 690.364 248.06 689.264C248.044 689.264 248.029 689.258 248.018 689.246C248.006 689.235 248 689.22 248 689.204C248 689.188 248.006 689.173 248.018 689.162C248.029 689.15 248.044 689.144 248.06 689.144C259.25 688.074 260.06 686.884 260.75 669.044C260.755 669.031 260.764 669.02 260.776 669.012C260.787 669.004 260.801 669 260.815 669C260.829 669 260.843 669.004 260.854 669.012C260.866 669.02 260.875 669.031 260.88 669.044C261.53 686.884 262.38 688.044 273.57 689.144C273.586 689.144 273.601 689.15 273.612 689.162C273.624 689.173 273.63 689.188 273.63 689.204C273.63 689.22 273.624 689.235 273.612 689.246C273.601 689.258 273.586 689.264 273.57 689.264Z" fill="white" fill-opacity="0.2"/>
<path d="M869.57 649.264C858.38 650.324 857.57 651.514 856.88 669.364C856.875 669.377 856.866 669.388 856.854 669.396C856.843 669.404 856.829 669.408 856.815 669.408C856.801 669.408 856.787 669.404 856.776 669.396C856.764 669.388 856.755 669.377 856.75 669.364C856.1 651.514 855.25 650.364 844.06 649.264C844.044 649.264 844.029 649.258 844.018 649.246C844.006 649.235 844 649.22 844 649.204C844 649.188 844.006 649.173 844.018 649.162C844.029 649.15 844.044 649.144 844.06 649.144C855.25 648.074 856.06 646.884 856.75 629.044C856.755 629.031 856.764 629.02 856.776 629.012C856.787 629.004 856.801 629 856.815 629C856.829 629 856.843 629.004 856.854 629.012C856.866 629.02 856.875 629.031 856.88 629.044C857.53 646.884 858.38 648.044 869.57 649.144C869.586 649.144 869.601 649.15 869.612 649.162C869.624 649.173 869.63 649.188 869.63 649.204C869.63 649.22 869.624 649.235 869.612 649.246C869.601 649.258 869.586 649.264 869.57 649.264Z" fill="white" fill-opacity="0.2"/>
<path d="M1073.57 512.264C1062.38 513.324 1061.57 514.514 1060.88 532.364C1060.87 532.377 1060.87 532.388 1060.85 532.396C1060.84 532.404 1060.83 532.408 1060.82 532.408C1060.8 532.408 1060.79 532.404 1060.78 532.396C1060.76 532.388 1060.76 532.377 1060.75 532.364C1060.1 514.514 1059.25 513.364 1048.06 512.264C1048.04 512.264 1048.03 512.258 1048.02 512.246C1048.01 512.235 1048 512.22 1048 512.204C1048 512.188 1048.01 512.173 1048.02 512.162C1048.03 512.15 1048.04 512.144 1048.06 512.144C1059.25 511.074 1060.06 509.884 1060.75 492.044C1060.76 492.031 1060.76 492.02 1060.78 492.012C1060.79 492.004 1060.8 492 1060.82 492C1060.83 492 1060.84 492.004 1060.85 492.012C1060.87 492.02 1060.87 492.031 1060.88 492.044C1061.53 509.884 1062.38 511.044 1073.57 512.144C1073.59 512.144 1073.6 512.15 1073.61 512.162C1073.62 512.173 1073.63 512.188 1073.63 512.204C1073.63 512.22 1073.62 512.235 1073.61 512.246C1073.6 512.258 1073.59 512.264 1073.57 512.264Z" fill="white" fill-opacity="0.2"/>
<g filter="url(#filter1_d_341_709)">
<path d="M1328.57 280.264C1317.38 281.324 1316.57 282.514 1315.88 300.364C1315.87 300.377 1315.87 300.388 1315.85 300.396C1315.84 300.404 1315.83 300.408 1315.82 300.408C1315.8 300.408 1315.79 300.404 1315.78 300.396C1315.76 300.388 1315.76 300.377 1315.75 300.364C1315.1 282.514 1314.25 281.364 1303.06 280.264C1303.04 280.264 1303.03 280.258 1303.02 280.246C1303.01 280.235 1303 280.22 1303 280.204C1303 280.188 1303.01 280.173 1303.02 280.162C1303.03 280.15 1303.04 280.144 1303.06 280.144C1314.25 279.074 1315.06 277.884 1315.75 260.044C1315.76 260.031 1315.76 260.02 1315.78 260.012C1315.79 260.004 1315.8 260 1315.82 260C1315.83 260 1315.84 260.004 1315.85 260.012C1315.87 260.02 1315.87 260.031 1315.88 260.044C1316.53 277.884 1317.38 279.044 1328.57 280.144C1328.59 280.144 1328.6 280.15 1328.61 280.162C1328.62 280.173 1328.63 280.188 1328.63 280.204C1328.63 280.22 1328.62 280.235 1328.61 280.246C1328.6 280.258 1328.59 280.264 1328.57 280.264Z" fill="white"/>
</g>
<path opacity="0.2" d="M1197.57 352.264C1186.38 353.324 1185.57 354.514 1184.88 372.364C1184.87 372.377 1184.87 372.388 1184.85 372.396C1184.84 372.404 1184.83 372.408 1184.82 372.408C1184.8 372.408 1184.79 372.404 1184.78 372.396C1184.76 372.388 1184.76 372.377 1184.75 372.364C1184.1 354.514 1183.25 353.364 1172.06 352.264C1172.04 352.264 1172.03 352.258 1172.02 352.246C1172.01 352.235 1172 352.22 1172 352.204C1172 352.188 1172.01 352.173 1172.02 352.162C1172.03 352.15 1172.04 352.144 1172.06 352.144C1183.25 351.074 1184.06 349.884 1184.75 332.044C1184.76 332.031 1184.76 332.02 1184.78 332.012C1184.79 332.004 1184.8 332 1184.82 332C1184.83 332 1184.84 332.004 1184.85 332.012C1184.87 332.02 1184.87 332.031 1184.88 332.044C1185.53 349.884 1186.38 351.044 1197.57 352.144C1197.59 352.144 1197.6 352.15 1197.61 352.162C1197.62 352.173 1197.63 352.188 1197.63 352.204C1197.63 352.22 1197.62 352.235 1197.61 352.246C1197.6 352.258 1197.59 352.264 1197.57 352.264Z" fill="white"/>
<path opacity="0.2" d="M1330.57 455.264C1319.38 456.324 1318.57 457.514 1317.88 475.364C1317.87 475.377 1317.87 475.388 1317.85 475.396C1317.84 475.404 1317.83 475.408 1317.82 475.408C1317.8 475.408 1317.79 475.404 1317.78 475.396C1317.76 475.388 1317.76 475.377 1317.75 475.364C1317.1 457.514 1316.25 456.364 1305.06 455.264C1305.04 455.264 1305.03 455.258 1305.02 455.246C1305.01 455.235 1305 455.22 1305 455.204C1305 455.188 1305.01 455.173 1305.02 455.162C1305.03 455.15 1305.04 455.144 1305.06 455.144C1316.25 454.074 1317.06 452.884 1317.75 435.044C1317.76 435.031 1317.76 435.02 1317.78 435.012C1317.79 435.004 1317.8 435 1317.82 435C1317.83 435 1317.84 435.004 1317.85 435.012C1317.87 435.02 1317.87 435.031 1317.88 435.044C1318.53 452.884 1319.38 454.044 1330.57 455.144C1330.59 455.144 1330.6 455.15 1330.61 455.162C1330.62 455.173 1330.63 455.188 1330.63 455.204C1330.63 455.22 1330.62 455.235 1330.61 455.246C1330.6 455.258 1330.59 455.264 1330.57 455.264Z" fill="white"/>
<g filter="url(#filter2_d_341_709)">
<path d="M723.57 156.264C712.38 157.324 711.57 158.514 710.88 176.364C710.875 176.377 710.866 176.388 710.854 176.396C710.843 176.404 710.829 176.408 710.815 176.408C710.801 176.408 710.787 176.404 710.776 176.396C710.764 176.388 710.755 176.377 710.75 176.364C710.1 158.514 709.25 157.364 698.06 156.264C698.044 156.264 698.029 156.258 698.018 156.246C698.006 156.235 698 156.22 698 156.204C698 156.188 698.006 156.173 698.018 156.162C698.029 156.15 698.044 156.144 698.06 156.144C709.25 155.074 710.06 153.884 710.75 136.044C710.755 136.031 710.764 136.02 710.776 136.012C710.787 136.004 710.801 136 710.815 136C710.829 136 710.843 136.004 710.854 136.012C710.866 136.02 710.875 136.031 710.88 136.044C711.53 153.884 712.38 155.044 723.57 156.144C723.586 156.144 723.601 156.15 723.612 156.162C723.624 156.173 723.63 156.188 723.63 156.204C723.63 156.22 723.624 156.235 723.612 156.246C723.601 156.258 723.586 156.264 723.57 156.264Z" fill="white"/>
</g>
<path d="M464.57 20.264C453.38 21.324 452.57 22.514 451.88 40.364C451.875 40.377 451.866 40.3881 451.854 40.396C451.843 40.4038 451.829 40.408 451.815 40.408C451.801 40.408 451.787 40.4038 451.776 40.396C451.764 40.3881 451.755 40.377 451.75 40.364C451.1 22.514 450.25 21.364 439.06 20.264C439.044 20.264 439.029 20.2577 439.018 20.2464C439.006 20.2352 439 20.2199 439 20.204C439 20.1881 439.006 20.1728 439.018 20.1616C439.029 20.1503 439.044 20.144 439.06 20.144C450.25 19.074 451.06 17.884 451.75 0.0440063C451.755 0.0310127 451.764 0.0198856 451.776 0.0120392C451.787 0.00419274 451.801 0 451.815 0C451.829 0 451.843 0.00419274 451.854 0.0120392C451.866 0.0198856 451.875 0.0310127 451.88 0.0440063C452.53 17.884 453.38 19.044 464.57 20.144C464.586 20.144 464.601 20.1503 464.612 20.1616C464.624 20.1728 464.63 20.1881 464.63 20.204C464.63 20.2199 464.624 20.2352 464.612 20.2464C464.601 20.2577 464.586 20.264 464.57 20.264Z" fill="white" fill-opacity="0.31"/>
<path d="M691.57 60.264C680.38 61.324 679.57 62.514 678.88 80.364C678.875 80.377 678.866 80.3881 678.854 80.396C678.843 80.4038 678.829 80.408 678.815 80.408C678.801 80.408 678.787 80.4038 678.776 80.396C678.764 80.3881 678.755 80.377 678.75 80.364C678.1 62.514 677.25 61.364 666.06 60.264C666.044 60.264 666.029 60.2577 666.018 60.2464C666.006 60.2352 666 60.2199 666 60.204C666 60.1881 666.006 60.1728 666.018 60.1616C666.029 60.1503 666.044 60.144 666.06 60.144C677.25 59.074 678.06 57.884 678.75 40.044C678.755 40.031 678.764 40.0199 678.776 40.012C678.787 40.0042 678.801 40 678.815 40C678.829 40 678.843 40.0042 678.854 40.012C678.866 40.0199 678.875 40.031 678.88 40.044C679.53 57.884 680.38 59.044 691.57 60.144C691.586 60.144 691.601 60.1503 691.612 60.1616C691.624 60.1728 691.63 60.1881 691.63 60.204C691.63 60.2199 691.624 60.2352 691.612 60.2464C691.601 60.2577 691.586 60.264 691.57 60.264Z" fill="white" fill-opacity="0.61"/>
<path d="M828.57 40.264C817.38 41.324 816.57 42.514 815.88 60.364C815.875 60.377 815.866 60.3881 815.854 60.396C815.843 60.4038 815.829 60.408 815.815 60.408C815.801 60.408 815.787 60.4038 815.776 60.396C815.764 60.3881 815.755 60.377 815.75 60.364C815.1 42.514 814.25 41.364 803.06 40.264C803.044 40.264 803.029 40.2577 803.018 40.2464C803.006 40.2352 803 40.2199 803 40.204C803 40.1881 803.006 40.1728 803.018 40.1616C803.029 40.1503 803.044 40.144 803.06 40.144C814.25 39.074 815.06 37.884 815.75 20.044C815.755 20.031 815.764 20.0199 815.776 20.012C815.787 20.0042 815.801 20 815.815 20C815.829 20 815.843 20.0042 815.854 20.012C815.866 20.0199 815.875 20.031 815.88 20.044C816.53 37.884 817.38 39.044 828.57 40.144C828.586 40.144 828.601 40.1503 828.612 40.1616C828.624 40.1728 828.63 40.1881 828.63 40.204C828.63 40.2199 828.624 40.2352 828.612 40.2464C828.601 40.2577 828.586 40.264 828.57 40.264Z" fill="white" fill-opacity="0.61"/>
<path d="M950.57 108.264C939.38 109.324 938.57 110.514 937.88 128.364C937.875 128.377 937.866 128.388 937.854 128.396C937.843 128.404 937.829 128.408 937.815 128.408C937.801 128.408 937.787 128.404 937.776 128.396C937.764 128.388 937.755 128.377 937.75 128.364C937.1 110.514 936.25 109.364 925.06 108.264C925.044 108.264 925.029 108.258 925.018 108.246C925.006 108.235 925 108.22 925 108.204C925 108.188 925.006 108.173 925.018 108.162C925.029 108.15 925.044 108.144 925.06 108.144C936.25 107.074 937.06 105.884 937.75 88.044C937.755 88.031 937.764 88.0199 937.776 88.012C937.787 88.0042 937.801 88 937.815 88C937.829 88 937.843 88.0042 937.854 88.012C937.866 88.0199 937.875 88.031 937.88 88.044C938.53 105.884 939.38 107.044 950.57 108.144C950.586 108.144 950.601 108.15 950.612 108.162C950.624 108.173 950.63 108.188 950.63 108.204C950.63 108.22 950.624 108.235 950.612 108.246C950.601 108.258 950.586 108.264 950.57 108.264Z" fill="white" fill-opacity="0.61"/>
<path d="M477.57 174.264C466.38 175.324 465.57 176.514 464.88 194.364C464.875 194.377 464.866 194.388 464.854 194.396C464.843 194.404 464.829 194.408 464.815 194.408C464.801 194.408 464.787 194.404 464.776 194.396C464.764 194.388 464.755 194.377 464.75 194.364C464.1 176.514 463.25 175.364 452.06 174.264C452.044 174.264 452.029 174.258 452.018 174.246C452.006 174.235 452 174.22 452 174.204C452 174.188 452.006 174.173 452.018 174.162C452.029 174.15 452.044 174.144 452.06 174.144C463.25 173.074 464.06 171.884 464.75 154.044C464.755 154.031 464.764 154.02 464.776 154.012C464.787 154.004 464.801 154 464.815 154C464.829 154 464.843 154.004 464.854 154.012C464.866 154.02 464.875 154.031 464.88 154.044C465.53 171.884 466.38 173.044 477.57 174.144C477.586 174.144 477.601 174.15 477.612 174.162C477.624 174.173 477.63 174.188 477.63 174.204C477.63 174.22 477.624 174.235 477.612 174.246C477.601 174.258 477.586 174.264 477.57 174.264Z" fill="white" fill-opacity="0.61"/>
<path d="M25.57 30.264C14.38 31.324 13.57 32.514 12.88 50.364C12.8748 50.377 12.8658 50.3881 12.8543 50.396C12.8427 50.4038 12.829 50.408 12.815 50.408C12.801 50.408 12.7873 50.4038 12.7757 50.396C12.7642 50.3881 12.7552 50.377 12.75 50.364C12.1 32.514 11.25 31.364 0.0600128 30.264C0.0440998 30.264 0.0288303 30.2577 0.0175781 30.2464C0.00632594 30.2352 0 30.2199 0 30.204C0 30.1881 0.00632594 30.1728 0.0175781 30.1616C0.0288303 30.1503 0.0440998 30.144 0.0600128 30.144C11.25 29.074 12.06 27.884 12.75 10.044C12.7552 10.031 12.7642 10.0199 12.7757 10.012C12.7873 10.0042 12.801 10 12.815 10C12.829 10 12.8427 10.0042 12.8543 10.012C12.8658 10.0199 12.8748 10.031 12.88 10.044C13.53 27.884 14.38 29.044 25.57 30.144C25.5859 30.144 25.6012 30.1503 25.6124 30.1616C25.6237 30.1728 25.63 30.1881 25.63 30.204C25.63 30.2199 25.6237 30.2352 25.6124 30.2464C25.6012 30.2577 25.5859 30.264 25.57 30.264Z" fill="white" fill-opacity="0.31"/>
<path d="M131.57 196.264C120.38 197.324 119.57 198.514 118.88 216.364C118.875 216.377 118.866 216.388 118.854 216.396C118.843 216.404 118.829 216.408 118.815 216.408C118.801 216.408 118.787 216.404 118.776 216.396C118.764 216.388 118.755 216.377 118.75 216.364C118.1 198.514 117.25 197.364 106.06 196.264C106.044 196.264 106.029 196.258 106.018 196.246C106.006 196.235 106 196.22 106 196.204C106 196.188 106.006 196.173 106.018 196.162C106.029 196.15 106.044 196.144 106.06 196.144C117.25 195.074 118.06 193.884 118.75 176.044C118.755 176.031 118.764 176.02 118.776 176.012C118.787 176.004 118.801 176 118.815 176C118.829 176 118.843 176.004 118.854 176.012C118.866 176.02 118.875 176.031 118.88 176.044C119.53 193.884 120.38 195.044 131.57 196.144C131.586 196.144 131.601 196.15 131.612 196.162C131.624 196.173 131.63 196.188 131.63 196.204C131.63 196.22 131.624 196.235 131.612 196.246C131.601 196.258 131.586 196.264 131.57 196.264Z" fill="white" fill-opacity="0.31"/>
<defs>
<filter id="filter0_d_341_709" x="1110.11" y="40.3695" width="250.228" height="241.902" filterUnits="userSpaceOnUse" color-interpolation-filters="sRGB">
<feFlood flood-opacity="0" result="BackgroundImageFix"/>
<feColorMatrix in="SourceAlpha" type="matrix" values="0 0 0 0 0 0 0 0 0 0 0 0 0 0 0 0 0 0 127 0" result="hardAlpha"/>
<feOffset dy="4"/>
<feGaussianBlur stdDeviation="32.7"/>
<feComposite in2="hardAlpha" operator="out"/>
<feColorMatrix type="matrix" values="0 0 0 0 0.998333 0 0 0 0 0.998333 0 0 0 0 0.998333 0 0 0 0.5 0"/>
<feBlend mode="normal" in2="BackgroundImageFix" result="effect1_dropShadow_341_709"/>
<feBlend mode="normal" in="SourceGraphic" in2="effect1_dropShadow_341_709" result="shape"/>
</filter>
<filter id="filter1_d_341_709" x="1251.9" y="212.9" width="127.83" height="142.606" filterUnits="userSpaceOnUse" color-interpolation-filters="sRGB">
<feFlood flood-opacity="0" result="BackgroundImageFix"/>
<feColorMatrix in="SourceAlpha" type="matrix" values="0 0 0 0 0 0 0 0 0 0 0 0 0 0 0 0 0 0 127 0" result="hardAlpha"/>
<feOffset dy="4"/>
<feGaussianBlur stdDeviation="25.55"/>
<feComposite in2="hardAlpha" operator="out"/>
<feColorMatrix type="matrix" values="0 0 0 0 0 0 0 0 0 0 0 0 0 0 0 0 0 0 1 0"/>
<feBlend mode="normal" in2="BackgroundImageFix" result="effect1_dropShadow_341_709"/>
<feBlend mode="normal" in="SourceGraphic" in2="effect1_dropShadow_341_709" result="shape"/>
</filter>
<filter id="filter2_d_341_709" x="669.6" y="111.6" width="82.4299" height="97.2062" filterUnits="userSpaceOnUse" color-interpolation-filters="sRGB">
<feFlood flood-opacity="0" result="BackgroundImageFix"/>
<feColorMatrix in="SourceAlpha" type="matrix" values="0 0 0 0 0 0 0 0 0 0 0 0 0 0 0 0 0 0 127 0" result="hardAlpha"/>
<feOffset dy="4"/>
<feGaussianBlur stdDeviation="14.2"/>
<feComposite in2="hardAlpha" operator="out"/>
<feColorMatrix type="matrix" values="0 0 0 0 1 0 0 0 0 1 0 0 0 0 1 0 0 0 1 0"/>
<feBlend mode="normal" in2="BackgroundImageFix" result="effect1_dropShadow_341_709"/>
<feBlend mode="normal" in="SourceGraphic" in2="effect1_dropShadow_341_709" result="shape"/>
</filter>
<linearGradient id="paint0_linear_341_709" x1="1171.92" y1="262.746" x2="1171.92" y2="184.926" gradientUnits="userSpaceOnUse">
<stop stop-color="#FBB294" stop-opacity="0"/>
<stop offset="1" stop-color="#FFEFEE"/>
</linearGradient>
</defs>
</svg>
